<svg xmlns="http://www.w3.org/2000/svg" width="115" height="40" version="1.1"><path fill="#050505" stroke-width="1" d="m57.9998 23-2e-4 9h-0.999596l2e-4 -9z" color="#000"/><path fill="#050505" stroke-width="1" d="m57.9998 5-2e-4 9h-0.999596l2e-4 -9z" color="#000"/><path fill="#050505" stroke-width="1" d="m7.9998 23-2e-4 9h-0.999596l2e-4 -9z" color="#000"/><path fill="#050505" stroke-width="1" d="m7.9998 5-2e-4 9h-0.999596l2e-4 -9z" color="#000"/><path fill="#050505" stroke-width="1" d="m108 23-2e-4 9h-0.9996l2e-4 -9z" color="#000"/><path fill="#050505" stroke-width="1" d="m108 5-2e-4 9h-0.9996l2e-4 -9z" color="#000"/><path fill="#050505" stroke-width="1" d="m44.9998 23 2e-6 7h-0.999596l-2e-6 -7z" color="#000"/><path fill="#050505" stroke-width="1" d="m45 7-4.02e-4 7h-0.999596l4.02e-4 -7z" color="#000"/><path fill="#050505" stroke-width="1" d="m70.9998 23 2e-6 7h-0.999596l-2e-6 -7z" color="#000"/><path fill="#050505" stroke-width="1" d="m71 7-4.02e-4 7h-0.999596l4.02e-4 -7z" color="#000"/><path fill="#636363" stroke-width="1" d="m57.9999 6-2e-4 9h-0.999596l2e-4 -9z" color="#000"/><path fill="#636363" stroke-width="1" d="m57.9996 33 2e-4 -9h-0.999596l-2e-4 9z" color="#000"/><path fill="#4b4b4b" stroke-width="1" d="m7.9998 6-2e-4 9h-0.999596l2e-4 -9z" color="#000"/><path fill="#4b4b4b" stroke-width="1" d="m7.9996 33 2e-4 -9h-0.999596l-2e-4 9z" color="#000"/><path fill="#4b4b4b" stroke-width="1" d="m108 6-2e-4 9h-0.9996l2e-4 -9z" color="#000"/><path fill="#4b4b4b" stroke-width="1" d="m108 33 2e-4 -9h-0.9996l-2e-4 9z" color="#000"/><path fill="#4b4b4b" stroke-width="1" d="m45 8-4.02e-4 7h-0.999596l4.02e-4 -7z" color="#000"/><path fill="#4b4b4b" stroke-width="1" d="m44.9998 31-2e-6 -7h-0.999596l2e-6 7z" color="#000"/><path fill="#4b4b4b" stroke-width="1" d="m71 8-4.02e-4 7h-0.999596l4.02e-4 -7z" color="#000"/><path fill="#4b4b4b" stroke-width="1" d="m70.9998 31-2e-6 -7h-0.999596l2e-6 7z" color="#000"/><path stroke="#000" stroke-linejoin="round" stroke-width="1.653" d="m108.674 18.3263v1.34746h-102.347v-1.34746z" color="#000"/></svg>