<svg xmlns="http://www.w3.org/2000/svg" width="40" height="95" version="1.1"><g fill="#050505"><path stroke-width="1" d="m6 6.49985h10v1h-10z" color="#000"/><path stroke-width=".953" d="m4 46.5001 12-1.14e-4v0.999886l-12 1.14e-4z" color="#000"/><path stroke-width="1" d="m36 46.5004h-12v0.999596h12z" color="#000"/></g><path fill="#404040" stroke-width="1" d="m6 6.99985h10v1h-10z" color="#000"/><path stroke="#000" stroke-linejoin="round" stroke-width="1.553" d="m19.2763 6.27632h1.44735v82.4474h-1.44735z" color="#000"/><path fill="#050505" stroke-width="1" d="m24 6.49985h8v1h-8z" color="#000"/><path fill="#404040" stroke-width="1" d="m24 6.99985h8v1h-8z" color="#000"/><path fill="#636363" stroke-width=".953" d="m4 47.0002 12 2.02e-4v0.999596l-12-2.02e-4z" color="#000"/><path fill="#636363" stroke-width="1" d="m36 47.0004h-12v0.999596h12z" color="#000"/><g stroke-width="1"><path fill="#050505" d="m6 16.5h10v1h-10z" color="#000"/><path fill="#404040" d="m6 17h10v1h-10z" color="#000"/><path fill="#050505" d="m24 16.5h10v1h-10z" color="#000"/><path fill="#404040" d="m24 17h10v1h-10z" color="#000"/><path fill="#050505" d="m6 26.5h10v1h-10z" color="#000"/><path fill="#404040" d="m6 27h10v1h-10z" color="#000"/><path fill="#050505" d="m24 26.5h10v1h-10z" color="#000"/><path fill="#404040" d="m24 27h10v1h-10z" color="#000"/><path fill="#050505" d="m6 36.5h10v1h-10z" color="#000"/><path fill="#404040" d="m6 37h10v1h-10z" color="#000"/><path fill="#050505" d="m24 36.5h10v1h-10z" color="#000"/><path fill="#404040" d="m24 37h10v1h-10z" color="#000"/><path fill="#050505" d="m6 56.4998h10v1h-10z" color="#000"/><path fill="#404040" d="m6 56.9998h10v1h-10z" color="#000"/><path fill="#050505" d="m24 56.4998h10v1h-10z" color="#000"/><path fill="#404040" d="m24 56.9998h10v1h-10z" color="#000"/><path fill="#050505" d="m6 66.5h10v1h-10z" color="#000"/><path fill="#404040" d="m6 67h10v1h-10z" color="#000"/><path fill="#050505" d="m24 66.5h10v1h-10z" color="#000"/><path fill="#404040" d="m24 67h10v1h-10z" color="#000"/><path fill="#050505" d="m6 76.5h10v1h-10z" color="#000"/><path fill="#404040" d="m6 77h10v1h-10z" color="#000"/><path fill="#050505" d="m24 76.5h10v1h-10z" color="#000"/><path fill="#404040" d="m24 77h10v1h-10z" color="#000"/><path fill="#050505" d="m6 86.5h10v1h-10z" color="#000"/><path fill="#404040" d="m6 87h10v1h-10z" color="#000"/><path fill="#050505" d="m24 86.5h8v1h-8z" color="#000"/><path fill="#404040" d="m24 87h8v1h-8z" color="#000"/></g></svg>