<svg xmlns="http://www.w3.org/2000/svg" xmlns:svg="http://www.w3.org/2000/svg" id="svg18" width="30" height="22" version="1.1"><metadata id="metadata24"/><path id="path2" d="m 12,4 c -0.554,0 -1,0.446 -1,1 v 3 h 8 V 5 C 19,4.446 18.554,4 18,4 Z m 1.25,1.5 C 13.66421,5.5 14,5.83579 14,6.25 14,6.66421 13.66421,7 13.25,7 12.83579,7 12.5,6.66421 12.5,6.25 12.5,5.83579 12.83579,5.5 13.25,5.5 Z m 3.5,0 c 0.41421,0 0.75,0.33579 0.75,0.75 C 17.5,6.66421 17.16421,7 16.75,7 16.33579,7 16,6.66421 16,6.25 16,5.83579 16.33579,5.5 16.75,5.5 Z" color="#000001" style="fill:#e86317;fill-opacity:1"/><rect id="rect4" width="2" height="3" x="12" y="15" rx="1" ry="1" style="fill:#e86317;fill-opacity:1"/><rect id="rect6" width="2" height="3" x="16" y="15" rx="1" ry="1" style="fill:#e86317;fill-opacity:1"/><rect id="rect8" width="2" height="5" x="8" y="9" color="#000001" rx="1" ry="1" style="fill:#e86317;fill-opacity:1"/><path id="path10" d="m 11,9 v 6.4219 c 0,0.32317 0.223,0.57812 0.5,0.57812 h 7 c 0.277,0 0.5,-0.25496 0.5,-0.57812 V 9 h -7.5 z" color="#000001" style="fill:#e86317;fill-opacity:1"/><rect id="rect12" width="2" height="5" x="20" y="9" color="#000001" rx="1" ry="1" style="fill:#e86317;fill-opacity:1"/></svg>