<svg xmlns="http://www.w3.org/2000/svg" width="160" height="5" version="1.1"><rect width="160" height="5" fill="#1e1e1e" stroke-width="1" color="#000"/><rect width="1" height="5" x="1" fill="#424242" color="#000"/><rect width="1" height="5" x="3" fill="#424242" color="#000"/><rect width="1" height="5" x="5" fill="#424242" color="#000"/><rect width="1" height="5" x="7" fill="#424242" color="#000"/><rect width="1" height="5" x="9" fill="#424242" color="#000"/><rect width="1" height="5" x="11" fill="#424242" color="#000"/><rect width="1" height="5" x="13" fill="#424242" color="#000"/><rect width="1" height="5" x="15" fill="#424242" color="#000"/><rect width="1" height="5" x="17" fill="#424242" color="#000"/><rect width="1" height="5" x="19" fill="#424242" color="#000"/><rect width="1" height="5" x="21" fill="#424242" color="#000"/><rect width="1" height="5" x="23" fill="#424242" color="#000"/><rect width="1" height="5" x="25" fill="#424242" color="#000"/><rect width="1" height="5" x="27" fill="#424242" color="#000"/><rect width="1" height="5" x="29" fill="#424242" color="#000"/><rect width="1" height="5" x="31" fill="#424242" color="#000"/><rect width="1" height="5" x="33" fill="#424242" color="#000"/><rect width="1" height="5" x="35" fill="#424242" color="#000"/><rect width="1" height="5" x="37" fill="#424242" color="#000"/><rect width="1" height="5" x="39" fill="#424242" color="#000"/><rect width="1" height="5" x="41" fill="#424242" color="#000"/><rect width="1" height="5" x="43" fill="#424242" color="#000"/><rect width="1" height="5" x="45" fill="#424242" color="#000"/><rect width="1" height="5" x="47" fill="#424242" color="#000"/><rect width="1" height="5" x="49" fill="#424242" color="#000"/><rect width="1" height="5" x="51" fill="#424242" color="#000"/><rect width="1" height="5" x="53" fill="#424242" color="#000"/><rect width="1" height="5" x="55" fill="#424242" color="#000"/><rect width="1" height="5" x="57" fill="#424242" color="#000"/><rect width="1" height="5" x="59" fill="#424242" color="#000"/><rect width="1" height="5" x="61" fill="#424242" color="#000"/><rect width="1" height="5" x="63" fill="#424242" color="#000"/><rect width="1" height="5" x="65" fill="#424242" color="#000"/><rect width="1" height="5" x="67" fill="#424242" color="#000"/><rect width="1" height="5" x="69" fill="#424242" color="#000"/><rect width="1" height="5" x="71" fill="#424242" color="#000"/><rect width="1" height="5" x="73" fill="#424242" color="#000"/><rect width="1" height="5" x="75" fill="#424242" color="#000"/><rect width="1" height="5" x="77" fill="#424242" color="#000"/><rect width="1" height="5" x="79" fill="#424242" color="#000"/><rect width="1" height="5" x="81" fill="#424242" color="#000"/><rect width="1" height="5" x="83" fill="#424242" color="#000"/><rect width="1" height="5" x="85" fill="#424242" color="#000"/><rect width="1" height="5" x="87" fill="#424242" color="#000"/><rect width="1" height="5" x="89" fill="#424242" color="#000"/><rect width="1" height="5" x="91" fill="#424242" color="#000"/><rect width="1" height="5" x="93" fill="#424242" color="#000"/><rect width="1" height="5" x="95" fill="#424242" color="#000"/><rect width="1" height="5" x="97" fill="#424242" color="#000"/><rect width="1" height="5" x="99" fill="#424242" color="#000"/><rect width="1" height="5" x="101" fill="#424242" color="#000"/><rect width="1" height="5" x="103" fill="#424242" color="#000"/><rect width="1" height="5" x="105" fill="#424242" color="#000"/><rect width="1" height="5" x="107" fill="#424242" color="#000"/><rect width="1" height="5" x="109" fill="#424242" color="#000"/><rect width="1" height="5" x="111" fill="#424242" color="#000"/><rect width="1" height="5" x="113" fill="#424242" color="#000"/><rect width="1" height="5" x="115" fill="#424242" color="#000"/><rect width="1" height="5" x="117" fill="#424242" color="#000"/><rect width="1" height="5" x="119" fill="#424242" color="#000"/><rect width="1" height="5" x="121" fill="#424242" color="#000"/><rect width="1" height="5" x="123" fill="#424242" color="#000"/><rect width="1" height="5" x="125" fill="#424242" color="#000"/><rect width="1" height="5" x="127" fill="#424242" color="#000"/><rect width="1" height="5" x="129" fill="#424242" color="#000"/><rect width="1" height="5" x="131" fill="#424242" color="#000"/><rect width="1" height="5" x="133" fill="#424242" color="#000"/><rect width="1" height="5" x="135" fill="#424242" color="#000"/><rect width="1" height="5" x="137" fill="#424242" color="#000"/><rect width="1" height="5" x="139" fill="#424242" color="#000"/><rect width="1" height="5" x="141" fill="#424242" color="#000"/><rect width="1" height="5" x="143" fill="#424242" color="#000"/><rect width="1" height="5" x="145" fill="#424242" color="#000"/><rect width="1" height="5" x="147" fill="#424242" color="#000"/><rect width="1" height="5" x="149" fill="#424242" color="#000"/><rect width="1" height="5" x="151" fill="#424242" color="#000"/><rect width="1" height="5" x="153" fill="#424242" color="#000"/><rect width="1" height="5" x="155" fill="#424242" color="#000"/><rect width="1" height="5" x="157" fill="#424242" color="#000"/><rect width="1" height="5" x="159" fill="#424242" color="#000"/></svg>