<svg xmlns="http://www.w3.org/2000/svg" xmlns:xlink="http://www.w3.org/1999/xlink" width="48" height="56" version="1.1" viewBox="0 0 12.7 14.817"><defs><filter id="filter7885"><feGaussianBlur stdDeviation=".6"/></filter><linearGradient id="linearGradient8768" x1="761" x2="761" y1="196" y2="185" gradientTransform="matrix(.26458 0 0 .26458 -193.81 -44.979)" gradientUnits="userSpaceOnUse"><stop offset="0" stop-color="#fff" stop-opacity=".031"/><stop offset="1" stop-color="#fff" stop-opacity=".063"/></linearGradient><linearGradient id="linearGradient14108" x1="748" x2="748" y1="139" y2="169" gradientTransform="translate(-170)" gradientUnits="userSpaceOnUse"><stop offset="0" stop-opacity=".753"/><stop offset="1" stop-opacity="0"/></linearGradient><clipPath id="clipPath14233"><ellipse cx="593.01" cy="140" fill="#fff" stroke-width="3.78" d="m 608.0116,139.99925 a 14.999999,15 0 0 1 -15,15 14.999999,15 0 0 1 -15,-15 14.999999,15 0 0 1 15,-15 14.999999,15 0 0 1 15,15 z" display="none" rx="15" ry="15"/><path fill="#fff" stroke-width="3.78" d="m570 131h46v46h-46zm38.012 8.9992a15 15 0 0 0-15-15 15 15 0 0 0-15 15 15 15 0 0 0 15 15 15 15 0 0 0 15-15z" class="powerclip"/></clipPath></defs><g><path fill="url(#linearGradient14108)" d="m578 139v15c0 8.2843 6.7157 15 15 15s15-6.7157 15-15v-15c0 8.2843-6.7157 15-15 15s-15-6.7157-15-15z" clip-path="url(#clipPath14233)" filter="url(#filter7885)" transform="translate(-95.851 -117.98) matrix(.26456 0 0 .26458 -54.684 87.289)"/></g><g display="none" transform="translate(-.662)"><rect width=".529" height="2.646" x="7.805" y="3.969" fill="#fff" display="inline"/><path fill="url(#linearGradient8768)" d="m7.5407 3.9687v2.6458h0.26459v-2.6458zm0.26459 2.6458v0.26458h0.52916v-0.26458zm0.52916 0h0.26459v-2.6458h-0.26459z" display="inline"/></g></svg>