<svg xmlns="http://www.w3.org/2000/svg" xmlns:xlink="http://www.w3.org/1999/xlink" width="15" height="52" version="1.1" viewBox="0 0 3.969 13.758"><defs><linearGradient id="linearGradient10563" x1="754" x2="754" y1="287" y2="343" gradientTransform="matrix(.26458 0 0 .26458 -189.27 101.86)" gradientUnits="userSpaceOnUse"><stop offset="0" stop-color="#282828"/><stop offset="1" stop-color="#202020"/></linearGradient><linearGradient id="linearGradient10565" x1="789" x2="789" y1="321" y2="373" gradientTransform="matrix(.34018 0 0 .26458 -249.18 93.398)" gradientUnits="userSpaceOnUse"><stop offset="0" stop-color="#fff" stop-opacity=".027"/><stop offset=".5" stop-color="#fff" stop-opacity=".035"/><stop offset="1" stop-color="#fff" stop-opacity=".017"/></linearGradient><linearGradient id="linearGradient10567" x1="789" x2="786" y1="347" y2="347" gradientTransform="matrix(.26458 0 0 .26458 -189.54 93.398)" gradientUnits="userSpaceOnUse" xlink:href="#linearGradient8803"/><linearGradient id="linearGradient8803"><stop offset="0" stop-opacity=".372"/><stop offset="1" stop-opacity="0"/></linearGradient><linearGradient id="linearGradient10569" x1="789" x2="786" y1="347" y2="347" gradientTransform="matrix(-.26458 0 0 .26458 230.36 93.398)" gradientUnits="userSpaceOnUse" xlink:href="#linearGradient8803"/></defs><g><g transform="rotate(90 100.36 86.831) rotate(-90 20.411 185.21)"><rect width="3.969" height="13.758" x="18.426" y="178.33" fill="url(#linearGradient10563)" rx=".265" ry=".265"/><rect width="2.381" height="13.758" x="19.22" y="178.33" fill="url(#linearGradient10565)"/><path fill-opacity=".251" d="m19.485 192.09c-0.14658 0-0.26458-0.118-0.26458-0.26458v-0.26459c0 0.14658 0.118 0.26459 0.26458 0.26459h1.8521c0.14658 0 0.26458-0.11801 0.26458-0.26459v0.26459c0 0.14658-0.118 0.26458-0.26458 0.26458z"/><path fill="url(#linearGradient10567)" d="m18.691 178.33c-0.14658 0-0.26458 0.118-0.26458 0.26458v13.229c0 0.14658 0.118 0.26458 0.26458 0.26458h0.52917v-13.758z"/><path fill="url(#linearGradient10569)" d="m22.131 178.33c0.14658 0 0.26458 0.118 0.26458 0.26458v13.229c0 0.14658-0.118 0.26458-0.26458 0.26458h-0.52917v-13.758z"/><path fill="#fff" fill-opacity=".063" d="m19.485 178.33c-0.14658 0-0.26458 0.118-0.26458 0.26458v0.26458c0-0.14658 0.118-0.26458 0.26458-0.26458h1.8521c0.14658 0 0.26458 0.118 0.26458 0.26458v-0.26458c0-0.14658-0.118-0.26458-0.26458-0.26458z"/><rect width=".265" height="13.758" x="20.278" y="178.33" fill="#fff" fill-opacity=".251"/><rect width=".265" height="13.758" x="20.014" y="178.33" fill-opacity=".125"/><rect width=".265" height="13.758" x="20.543" y="178.33" fill-opacity=".125"/></g></g></svg>