<svg xmlns="http://www.w3.org/2000/svg" width="52" height="15" version="1.1" viewBox="0 0 13.759 3.969"><defs><linearGradient id="linearGradient9034" x1="87" x2="218" y1="-713" y2="-713" gradientTransform="matrix(0 .26458 -.26458 0 -186.51 -23.019)" gradientUnits="userSpaceOnUse"><stop offset="0" stop-color="#fff" stop-opacity="0"/><stop offset=".196" stop-color="#fff" stop-opacity=".039"/><stop offset="1" stop-color="#fff" stop-opacity=".047"/></linearGradient><linearGradient id="linearGradient25272" x1="754" x2="754" y1="287" y2="343" gradientTransform="translate(-701,-1028)" gradientUnits="userSpaceOnUse"><stop offset="0" stop-color="#282828"/><stop offset="1" stop-color="#202020"/></linearGradient><linearGradient id="linearGradient25274" x1="789" x2="789" y1="321" y2="373" gradientTransform="matrix(1.2857,0,0,1,-927.43,-1060)" gradientUnits="userSpaceOnUse"><stop offset="0" stop-color="#fff" stop-opacity=".016"/><stop offset=".5" stop-color="#fff" stop-opacity=".035"/><stop offset="1" stop-color="#fff" stop-opacity=".017"/></linearGradient><linearGradient id="linearGradient25276" x1="789" x2="786" y1="347" y2="347" gradientTransform="rotate(90,881,179)" gradientUnits="userSpaceOnUse"><stop offset="0" stop-color="#fff" stop-opacity=".098"/><stop offset=".5" stop-color="#fff" stop-opacity=".079"/><stop offset="1" stop-color="#fff" stop-opacity=".037"/></linearGradient><linearGradient id="linearGradient25278" x1="789" x2="786" y1="347" y2="347" gradientTransform="matrix(0,-1,-1,0,1060,885)" gradientUnits="userSpaceOnUse"><stop offset="0" stop-opacity=".372"/><stop offset="1" stop-opacity="0"/></linearGradient></defs><path fill="url(#linearGradient9034)" d="m2.1375 3.839e-4c-0.43974 0-0.79375 0.35401-0.79375 0.79375v33.073c0 0.43974 0.35401 0.79375 0.79375 0.79375s0.79375-0.35401 0.79375-0.79375v-33.073c0-0.43974-0.35401-0.79375-0.79375-0.79375zm-0.0331 0.26458h0.0661c0.27379 0 0.4961 0.23601 0.4961 0.52917v33.073c0 0.29316-0.22231 0.52917-0.4961 0.52917h-0.0661c-0.27379 0-0.4961-0.23601-0.4961-0.52917v-33.073c0-0.29316 0.22231-0.52917 0.4961-0.52917z"/><g transform="matrix(.26459 0 0 .26459 -181.77 -22.226)"><rect width="15" height="52" x="84" y="-739" fill="url(#linearGradient25272)" rx="1" ry="1" transform="rotate(90)"/><rect width="9" height="52" x="87" y="-739" fill="url(#linearGradient25274)" transform="rotate(90)"/><path fill="url(#linearGradient25276)" d="m739 85c0-0.554-0.446-1-1-1h-50c-0.554 0-1 0.446-1 1v2h52z"/><path fill="url(#linearGradient25278)" d="m739 98c0 0.554-0.446 1-1 1h-50c-0.554 0-1-0.446-1-1v-2h52z"/><rect width="1" height="52" x="91" y="-739" fill="#fff" fill-opacity=".251" transform="rotate(90)"/><rect width="1" height="52" x="90" y="-739" fill-opacity=".125" transform="rotate(90)"/></g></svg>