<svg xmlns="http://www.w3.org/2000/svg" xmlns:svg="http://www.w3.org/2000/svg" xmlns:xlink="http://www.w3.org/1999/xlink" id="svg6049" width="44" height="128" version="1.1" viewBox="0 0 11.642 33.867"><defs id="defs6043"><linearGradient id="linearGradient18830" x1="87" x2="218" y1="-713" y2="-713" gradientTransform="matrix(0,0.26458333,-0.26458333,0,-162.18958,166.78199)" gradientUnits="userSpaceOnUse" xlink:href="#linearGradient9019"/><linearGradient id="linearGradient9019"><stop style="stop-color:#fff;stop-opacity:0" id="stop9021" offset="0"/><stop id="stop9036" offset=".196" style="stop-color:#fff;stop-opacity:.03921569"/><stop style="stop-color:#fff;stop-opacity:.04705882" id="stop9023" offset="1"/></linearGradient></defs><metadata id="metadata6046"/><g id="layer1" transform="translate(-20.637501,-190.06532)"><path id="path18280" d="m 26.458338,189.80074 c -0.439737,0 -0.79375,0.35402 -0.79375,0.79375 v 33.07292 c 0,0.43974 0.354013,0.79375 0.79375,0.79375 0.439738,0 0.79375,-0.35401 0.79375,-0.79375 v -33.07292 c 0,-0.43973 -0.354012,-0.79375 -0.79375,-0.79375 z m -0.03307,0.26459 h 0.06615 c 0.273786,0 0.496094,0.23601 0.496094,0.52916 v 33.07292 c 0,0.29316 -0.222308,0.52917 -0.496094,0.52917 h -0.06615 c -0.273785,0 -0.496093,-0.23601 -0.496093,-0.52917 v -33.07292 c 0,-0.29315 0.222308,-0.52916 0.496093,-0.52916 z" style="display:inline;fill:url(#linearGradient18830);fill-opacity:1;stroke:none;stroke-width:.264583"/><rect style="display:inline;fill:#000;fill-opacity:.501961;stroke:none;stroke-width:.263177" id="rect18282" width="33.77" height="1.058" x="190.065" y="-26.988" rx=".524" ry=".494" transform="rotate(90)"/><g id="g18284" transform="matrix(0.26458333,0,0,0.26458333,-146.31458,166.78199)" style="display:inline"><g id="g18286"><rect style="fill:#fff;fill-opacity:.12549;stroke:none" id="rect18288" width="15" height="1" x="-675" y="89" rx="0" ry="1" transform="scale(-1,1)"/><rect id="rect18290" width="15" height="1" x="-675" y="88" rx="0" ry="1" transform="scale(-1,1)" style="fill:#000;fill-opacity:.12549;stroke:none"/><rect id="rect18292" width="15" height="1" x="-646" y="89" rx="0" ry="1" transform="scale(-1,1)" style="fill:#fff;fill-opacity:.12549;stroke:none"/><rect style="fill:#000;fill-opacity:.12549;stroke:none" id="rect18294" width="15" height="1" x="-646" y="88" rx="0" ry="1" transform="scale(-1,1)"/></g><g id="g18296"><rect id="rect18298" width="15" height="1" x="-675" y="215" rx="0" ry="1" transform="scale(-1,1)" style="fill:#fff;fill-opacity:.12549;stroke:none"/><rect style="fill:#000;fill-opacity:.12549;stroke:none" id="rect18300" width="15" height="1" x="-675" y="214" rx="0" ry="1" transform="scale(-1,1)"/><rect style="fill:#fff;fill-opacity:.12549;stroke:none" id="rect18302" width="15" height="1" x="-646" y="215" rx="0" ry="1" transform="scale(-1,1)"/><rect id="rect18304" width="15" height="1" x="-646" y="214" rx="0" ry="1" transform="scale(-1,1)" style="fill:#000;fill-opacity:.12549;stroke:none"/></g><g id="g18306"><rect style="fill:#fff;fill-opacity:.12549;stroke:none" id="rect18308" width="15" height="1" x="-675" y="152" rx="0" ry="1" transform="scale(-1,1)"/><rect id="rect18310" width="15" height="1" x="-675" y="151" rx="0" ry="1" transform="scale(-1,1)" style="fill:#000;fill-opacity:.12549;stroke:none"/><rect id="rect18312" width="15" height="1" x="-646" y="152" rx="0" ry="1" transform="scale(-1,1)" style="fill:#fff;fill-opacity:.12549;stroke:none"/><rect style="fill:#000;fill-opacity:.12549;stroke:none" id="rect18314" width="15" height="1" x="-646" y="151" rx="0" ry="1" transform="scale(-1,1)"/></g><g id="g18316"><rect id="rect18318" width="9" height="1" x="-669" y="92" rx="0" ry="1" transform="scale(-1,1)" style="fill:#fff;fill-opacity:.12549;stroke:none"/><rect style="fill:#000;fill-opacity:.12549;stroke:none" id="rect18320" width="9" height="1" x="-669" y="91" rx="0" ry="1" transform="scale(-1,1)"/><rect style="fill:#fff;fill-opacity:.12549;stroke:none" id="rect18322" width="9" height="1" x="-646" y="92" rx="0" ry="1" transform="scale(-1,1)"/><rect id="rect18324" width="9" height="1" x="-646" y="91" rx="0" ry="1" transform="scale(-1,1)" style="fill:#000;fill-opacity:.12549;stroke:none"/><rect style="fill:#fff;fill-opacity:.12549;stroke:none" id="rect18326" width="9" height="1" x="-669" y="95" rx="0" ry="1" transform="scale(-1,1)"/><rect id="rect18328" width="9" height="1" x="-669" y="94" rx="0" ry="1" transform="scale(-1,1)" style="fill:#000;fill-opacity:.12549;stroke:none"/><rect id="rect18330" width="9" height="1" x="-646" y="95" rx="0" ry="1" transform="scale(-1,1)" style="fill:#fff;fill-opacity:.12549;stroke:none"/><rect style="fill:#000;fill-opacity:.12549;stroke:none" id="rect18332" width="9" height="1" x="-646" y="94" rx="0" ry="1" transform="scale(-1,1)"/><rect id="rect18334" width="9" height="1" x="-669" y="98" rx="0" ry="1" transform="scale(-1,1)" style="fill:#fff;fill-opacity:.12549;stroke:none"/><rect style="fill:#000;fill-opacity:.12549;stroke:none" id="rect18336" width="9" height="1" x="-669" y="97" rx="0" ry="1" transform="scale(-1,1)"/><rect style="fill:#fff;fill-opacity:.12549;stroke:none" id="rect18338" width="9" height="1" x="-646" y="98" rx="0" ry="1" transform="scale(-1,1)"/><rect id="rect18340" width="9" height="1" x="-646" y="97" rx="0" ry="1" transform="scale(-1,1)" style="fill:#000;fill-opacity:.12549;stroke:none"/><rect style="fill:#fff;fill-opacity:.12549;stroke:none" id="rect18342" width="9" height="1" x="-669" y="101" rx="0" ry="1" transform="scale(-1,1)"/><rect id="rect18344" width="9" height="1" x="-669" y="100" rx="0" ry="1" transform="scale(-1,1)" style="fill:#000;fill-opacity:.12549;stroke:none"/><rect id="rect18346" width="9" height="1" x="-646" y="101" rx="0" ry="1" transform="scale(-1,1)" style="fill:#fff;fill-opacity:.12549;stroke:none"/><rect style="fill:#000;fill-opacity:.12549;stroke:none" id="rect18348" width="9" height="1" x="-646" y="100" rx="0" ry="1" transform="scale(-1,1)"/><rect id="rect18350" width="9" height="1" x="-669" y="104" rx="0" ry="1" transform="scale(-1,1)" style="fill:#fff;fill-opacity:.12549;stroke:none"/><rect style="fill:#000;fill-opacity:.12549;stroke:none" id="rect18352" width="9" height="1" x="-669" y="103" rx="0" ry="1" transform="scale(-1,1)"/><rect style="fill:#fff;fill-opacity:.12549;stroke:none" id="rect18354" width="9" height="1" x="-646" y="104" rx="0" ry="1" transform="scale(-1,1)"/><rect id="rect18356" width="9" height="1" x="-646" y="103" rx="0" ry="1" transform="scale(-1,1)" style="fill:#000;fill-opacity:.12549;stroke:none"/><rect style="fill:#fff;fill-opacity:.12549;stroke:none" id="rect18358" width="9" height="1" x="-669" y="107" rx="0" ry="1" transform="scale(-1,1)"/><rect id="rect18360" width="9" height="1" x="-669" y="106" rx="0" ry="1" transform="scale(-1,1)" style="fill:#000;fill-opacity:.12549;stroke:none"/><rect id="rect18362" width="9" height="1" x="-646" y="107" rx="0" ry="1" transform="scale(-1,1)" style="fill:#fff;fill-opacity:.12549;stroke:none"/><rect style="fill:#000;fill-opacity:.12549;stroke:none" id="rect18364" width="9" height="1" x="-646" y="106" rx="0" ry="1" transform="scale(-1,1)"/><rect id="rect18366" width="9" height="1" x="-669" y="110" rx="0" ry="1" transform="scale(-1,1)" style="fill:#fff;fill-opacity:.12549;stroke:none"/><rect style="fill:#000;fill-opacity:.12549;stroke:none" id="rect18368" width="9" height="1" x="-669" y="109" rx="0" ry="1" transform="scale(-1,1)"/><rect style="fill:#fff;fill-opacity:.12549;stroke:none" id="rect18370" width="9" height="1" x="-646" y="110" rx="0" ry="1" transform="scale(-1,1)"/><rect id="rect18372" width="9" height="1" x="-646" y="109" rx="0" ry="1" transform="scale(-1,1)" style="fill:#000;fill-opacity:.12549;stroke:none"/><rect style="fill:#fff;fill-opacity:.12549;stroke:none" id="rect18374" width="9" height="1" x="-669" y="113" rx="0" ry="1" transform="scale(-1,1)"/><rect id="rect18376" width="9" height="1" x="-669" y="112" rx="0" ry="1" transform="scale(-1,1)" style="fill:#000;fill-opacity:.12549;stroke:none"/><rect id="rect18378" width="9" height="1" x="-646" y="113" rx="0" ry="1" transform="scale(-1,1)" style="fill:#fff;fill-opacity:.12549;stroke:none"/><rect style="fill:#000;fill-opacity:.12549;stroke:none" id="rect18380" width="9" height="1" x="-646" y="112" rx="0" ry="1" transform="scale(-1,1)"/><rect id="rect18382" width="9" height="1" x="-669" y="116" rx="0" ry="1" transform="scale(-1,1)" style="fill:#fff;fill-opacity:.12549;stroke:none"/><rect style="fill:#000;fill-opacity:.12549;stroke:none" id="rect18384" width="9" height="1" x="-669" y="115" rx="0" ry="1" transform="scale(-1,1)"/><rect style="fill:#fff;fill-opacity:.12549;stroke:none" id="rect18386" width="9" height="1" x="-646" y="116" rx="0" ry="1" transform="scale(-1,1)"/><rect id="rect18388" width="9" height="1" x="-646" y="115" rx="0" ry="1" transform="scale(-1,1)" style="fill:#000;fill-opacity:.12549;stroke:none"/><rect style="fill:#fff;fill-opacity:.12549;stroke:none" id="rect18390" width="9" height="1" x="-669" y="119" rx="0" ry="1" transform="scale(-1,1)"/><rect id="rect18392" width="9" height="1" x="-669" y="118" rx="0" ry="1" transform="scale(-1,1)" style="fill:#000;fill-opacity:.12549;stroke:none"/><rect id="rect18394" width="9" height="1" x="-646" y="119" rx="0" ry="1" transform="scale(-1,1)" style="fill:#fff;fill-opacity:.12549;stroke:none"/><rect style="fill:#000;fill-opacity:.12549;stroke:none" id="rect18396" width="9" height="1" x="-646" y="118" rx="0" ry="1" transform="scale(-1,1)"/><rect id="rect18398" width="9" height="1" x="-669" y="122" rx="0" ry="1" transform="scale(-1,1)" style="fill:#fff;fill-opacity:.12549;stroke:none"/><rect style="fill:#000;fill-opacity:.12549;stroke:none" id="rect18400" width="9" height="1" x="-669" y="121" rx="0" ry="1" transform="scale(-1,1)"/><rect style="fill:#fff;fill-opacity:.12549;stroke:none" id="rect18402" width="9" height="1" x="-646" y="122" rx="0" ry="1" transform="scale(-1,1)"/><rect id="rect18404" width="9" height="1" x="-646" y="121" rx="0" ry="1" transform="scale(-1,1)" style="fill:#000;fill-opacity:.12549;stroke:none"/><rect style="fill:#fff;fill-opacity:.12549;stroke:none" id="rect18406" width="9" height="1" x="-669" y="125" rx="0" ry="1" transform="scale(-1,1)"/><rect id="rect18408" width="9" height="1" x="-669" y="124" rx="0" ry="1" transform="scale(-1,1)" style="fill:#000;fill-opacity:.12549;stroke:none"/><rect id="rect18410" width="9" height="1" x="-646" y="125" rx="0" ry="1" transform="scale(-1,1)" style="fill:#fff;fill-opacity:.12549;stroke:none"/><rect style="fill:#000;fill-opacity:.12549;stroke:none" id="rect18412" width="9" height="1" x="-646" y="124" rx="0" ry="1" transform="scale(-1,1)"/><rect id="rect18414" width="9" height="1" x="-669" y="128" rx="0" ry="1" transform="scale(-1,1)" style="fill:#fff;fill-opacity:.12549;stroke:none"/><rect style="fill:#000;fill-opacity:.12549;stroke:none" id="rect18416" width="9" height="1" x="-669" y="127" rx="0" ry="1" transform="scale(-1,1)"/><rect style="fill:#fff;fill-opacity:.12549;stroke:none" id="rect18418" width="9" height="1" x="-646" y="128" rx="0" ry="1" transform="scale(-1,1)"/><rect id="rect18420" width="9" height="1" x="-646" y="127" rx="0" ry="1" transform="scale(-1,1)" style="fill:#000;fill-opacity:.12549;stroke:none"/><rect style="fill:#fff;fill-opacity:.12549;stroke:none" id="rect18422" width="9" height="1" x="-669" y="131" rx="0" ry="1" transform="scale(-1,1)"/><rect id="rect18424" width="9" height="1" x="-669" y="130" rx="0" ry="1" transform="scale(-1,1)" style="fill:#000;fill-opacity:.12549;stroke:none"/><rect id="rect18426" width="9" height="1" x="-646" y="131" rx="0" ry="1" transform="scale(-1,1)" style="fill:#fff;fill-opacity:.12549;stroke:none"/><rect style="fill:#000;fill-opacity:.12549;stroke:none" id="rect18428" width="9" height="1" x="-646" y="130" rx="0" ry="1" transform="scale(-1,1)"/><rect id="rect18430" width="9" height="1" x="-669" y="134" rx="0" ry="1" transform="scale(-1,1)" style="fill:#fff;fill-opacity:.12549;stroke:none"/><rect style="fill:#000;fill-opacity:.12549;stroke:none" id="rect18432" width="9" height="1" x="-669" y="133" rx="0" ry="1" transform="scale(-1,1)"/><rect style="fill:#fff;fill-opacity:.12549;stroke:none" id="rect18434" width="9" height="1" x="-646" y="134" rx="0" ry="1" transform="scale(-1,1)"/><rect id="rect18436" width="9" height="1" x="-646" y="133" rx="0" ry="1" transform="scale(-1,1)" style="fill:#000;fill-opacity:.12549;stroke:none"/><rect style="fill:#fff;fill-opacity:.12549;stroke:none" id="rect18438" width="9" height="1" x="-669" y="137" rx="0" ry="1" transform="scale(-1,1)"/><rect id="rect18440" width="9" height="1" x="-669" y="136" rx="0" ry="1" transform="scale(-1,1)" style="fill:#000;fill-opacity:.12549;stroke:none"/><rect id="rect18442" width="9" height="1" x="-646" y="137" rx="0" ry="1" transform="scale(-1,1)" style="fill:#fff;fill-opacity:.12549;stroke:none"/><rect style="fill:#000;fill-opacity:.12549;stroke:none" id="rect18444" width="9" height="1" x="-646" y="136" rx="0" ry="1" transform="scale(-1,1)"/><rect id="rect18446" width="9" height="1" x="-669" y="140" rx="0" ry="1" transform="scale(-1,1)" style="fill:#fff;fill-opacity:.12549;stroke:none"/><rect style="fill:#000;fill-opacity:.12549;stroke:none" id="rect18448" width="9" height="1" x="-669" y="139" rx="0" ry="1" transform="scale(-1,1)"/><rect style="fill:#fff;fill-opacity:.12549;stroke:none" id="rect18450" width="9" height="1" x="-646" y="140" rx="0" ry="1" transform="scale(-1,1)"/><rect id="rect18452" width="9" height="1" x="-646" y="139" rx="0" ry="1" transform="scale(-1,1)" style="fill:#000;fill-opacity:.12549;stroke:none"/><rect style="fill:#fff;fill-opacity:.12549;stroke:none" id="rect18454" width="9" height="1" x="-669" y="143" rx="0" ry="1" transform="scale(-1,1)"/><rect id="rect18456" width="9" height="1" x="-669" y="142" rx="0" ry="1" transform="scale(-1,1)" style="fill:#000;fill-opacity:.12549;stroke:none"/><rect id="rect18458" width="9" height="1" x="-646" y="143" rx="0" ry="1" transform="scale(-1,1)" style="fill:#fff;fill-opacity:.12549;stroke:none"/><rect style="fill:#000;fill-opacity:.12549;stroke:none" id="rect18460" width="9" height="1" x="-646" y="142" rx="0" ry="1" transform="scale(-1,1)"/><rect id="rect18462" width="9" height="1" x="-669" y="146" rx="0" ry="1" transform="scale(-1,1)" style="fill:#fff;fill-opacity:.12549;stroke:none"/><rect style="fill:#000;fill-opacity:.12549;stroke:none" id="rect18464" width="9" height="1" x="-669" y="145" rx="0" ry="1" transform="scale(-1,1)"/><rect style="fill:#fff;fill-opacity:.12549;stroke:none" id="rect18466" width="9" height="1" x="-646" y="146" rx="0" ry="1" transform="scale(-1,1)"/><rect id="rect18468" width="9" height="1" x="-646" y="145" rx="0" ry="1" transform="scale(-1,1)" style="fill:#000;fill-opacity:.12549;stroke:none"/><rect style="fill:#fff;fill-opacity:.12549;stroke:none" id="rect18470" width="9" height="1" x="-669" y="149" rx="0" ry="1" transform="scale(-1,1)"/><rect id="rect18472" width="9" height="1" x="-669" y="148" rx="0" ry="1" transform="scale(-1,1)" style="fill:#000;fill-opacity:.12549;stroke:none"/><rect id="rect18474" width="9" height="1" x="-646" y="149" rx="0" ry="1" transform="scale(-1,1)" style="fill:#fff;fill-opacity:.12549;stroke:none"/><rect style="fill:#000;fill-opacity:.12549;stroke:none" id="rect18476" width="9" height="1" x="-646" y="148" rx="0" ry="1" transform="scale(-1,1)"/></g><g id="g18478" transform="translate(0,63)"><rect style="fill:#fff;fill-opacity:.12549;stroke:none" id="rect18480" width="9" height="1" x="-669" y="92" rx="0" ry="1" transform="scale(-1,1)"/><rect id="rect18482" width="9" height="1" x="-669" y="91" rx="0" ry="1" transform="scale(-1,1)" style="fill:#000;fill-opacity:.12549;stroke:none"/><rect id="rect18484" width="9" height="1" x="-646" y="92" rx="0" ry="1" transform="scale(-1,1)" style="fill:#fff;fill-opacity:.12549;stroke:none"/><rect style="fill:#000;fill-opacity:.12549;stroke:none" id="rect18486" width="9" height="1" x="-646" y="91" rx="0" ry="1" transform="scale(-1,1)"/><rect id="rect18488" width="9" height="1" x="-669" y="95" rx="0" ry="1" transform="scale(-1,1)" style="fill:#fff;fill-opacity:.12549;stroke:none"/><rect style="fill:#000;fill-opacity:.12549;stroke:none" id="rect18490" width="9" height="1" x="-669" y="94" rx="0" ry="1" transform="scale(-1,1)"/><rect style="fill:#fff;fill-opacity:.12549;stroke:none" id="rect18492" width="9" height="1" x="-646" y="95" rx="0" ry="1" transform="scale(-1,1)"/><rect id="rect18494" width="9" height="1" x="-646" y="94" rx="0" ry="1" transform="scale(-1,1)" style="fill:#000;fill-opacity:.12549;stroke:none"/><rect style="fill:#fff;fill-opacity:.12549;stroke:none" id="rect18496" width="9" height="1" x="-669" y="98" rx="0" ry="1" transform="scale(-1,1)"/><rect id="rect18498" width="9" height="1" x="-669" y="97" rx="0" ry="1" transform="scale(-1,1)" style="fill:#000;fill-opacity:.12549;stroke:none"/><rect id="rect18500" width="9" height="1" x="-646" y="98" rx="0" ry="1" transform="scale(-1,1)" style="fill:#fff;fill-opacity:.12549;stroke:none"/><rect style="fill:#000;fill-opacity:.12549;stroke:none" id="rect18502" width="9" height="1" x="-646" y="97" rx="0" ry="1" transform="scale(-1,1)"/><rect id="rect18504" width="9" height="1" x="-669" y="101" rx="0" ry="1" transform="scale(-1,1)" style="fill:#fff;fill-opacity:.12549;stroke:none"/><rect style="fill:#000;fill-opacity:.12549;stroke:none" id="rect18506" width="9" height="1" x="-669" y="100" rx="0" ry="1" transform="scale(-1,1)"/><rect style="fill:#fff;fill-opacity:.12549;stroke:none" id="rect18508" width="9" height="1" x="-646" y="101" rx="0" ry="1" transform="scale(-1,1)"/><rect id="rect18510" width="9" height="1" x="-646" y="100" rx="0" ry="1" transform="scale(-1,1)" style="fill:#000;fill-opacity:.12549;stroke:none"/><rect style="fill:#fff;fill-opacity:.12549;stroke:none" id="rect18512" width="9" height="1" x="-669" y="104" rx="0" ry="1" transform="scale(-1,1)"/><rect id="rect18514" width="9" height="1" x="-669" y="103" rx="0" ry="1" transform="scale(-1,1)" style="fill:#000;fill-opacity:.12549;stroke:none"/><rect id="rect18516" width="9" height="1" x="-646" y="104" rx="0" ry="1" transform="scale(-1,1)" style="fill:#fff;fill-opacity:.12549;stroke:none"/><rect style="fill:#000;fill-opacity:.12549;stroke:none" id="rect18518" width="9" height="1" x="-646" y="103" rx="0" ry="1" transform="scale(-1,1)"/><rect id="rect18520" width="9" height="1" x="-669" y="107" rx="0" ry="1" transform="scale(-1,1)" style="fill:#fff;fill-opacity:.12549;stroke:none"/><rect style="fill:#000;fill-opacity:.12549;stroke:none" id="rect18522" width="9" height="1" x="-669" y="106" rx="0" ry="1" transform="scale(-1,1)"/><rect style="fill:#fff;fill-opacity:.12549;stroke:none" id="rect18524" width="9" height="1" x="-646" y="107" rx="0" ry="1" transform="scale(-1,1)"/><rect id="rect18526" width="9" height="1" x="-646" y="106" rx="0" ry="1" transform="scale(-1,1)" style="fill:#000;fill-opacity:.12549;stroke:none"/><rect style="fill:#fff;fill-opacity:.12549;stroke:none" id="rect18528" width="9" height="1" x="-669" y="110" rx="0" ry="1" transform="scale(-1,1)"/><rect id="rect18530" width="9" height="1" x="-669" y="109" rx="0" ry="1" transform="scale(-1,1)" style="fill:#000;fill-opacity:.12549;stroke:none"/><rect id="rect18532" width="9" height="1" x="-646" y="110" rx="0" ry="1" transform="scale(-1,1)" style="fill:#fff;fill-opacity:.12549;stroke:none"/><rect style="fill:#000;fill-opacity:.12549;stroke:none" id="rect18534" width="9" height="1" x="-646" y="109" rx="0" ry="1" transform="scale(-1,1)"/><rect id="rect18536" width="9" height="1" x="-669" y="113" rx="0" ry="1" transform="scale(-1,1)" style="fill:#fff;fill-opacity:.12549;stroke:none"/><rect style="fill:#000;fill-opacity:.12549;stroke:none" id="rect18538" width="9" height="1" x="-669" y="112" rx="0" ry="1" transform="scale(-1,1)"/><rect style="fill:#fff;fill-opacity:.12549;stroke:none" id="rect18540" width="9" height="1" x="-646" y="113" rx="0" ry="1" transform="scale(-1,1)"/><rect id="rect18542" width="9" height="1" x="-646" y="112" rx="0" ry="1" transform="scale(-1,1)" style="fill:#000;fill-opacity:.12549;stroke:none"/><rect style="fill:#fff;fill-opacity:.12549;stroke:none" id="rect18544" width="9" height="1" x="-669" y="116" rx="0" ry="1" transform="scale(-1,1)"/><rect id="rect18546" width="9" height="1" x="-669" y="115" rx="0" ry="1" transform="scale(-1,1)" style="fill:#000;fill-opacity:.12549;stroke:none"/><rect id="rect18548" width="9" height="1" x="-646" y="116" rx="0" ry="1" transform="scale(-1,1)" style="fill:#fff;fill-opacity:.12549;stroke:none"/><rect style="fill:#000;fill-opacity:.12549;stroke:none" id="rect18550" width="9" height="1" x="-646" y="115" rx="0" ry="1" transform="scale(-1,1)"/><rect id="rect18552" width="9" height="1" x="-669" y="119" rx="0" ry="1" transform="scale(-1,1)" style="fill:#fff;fill-opacity:.12549;stroke:none"/><rect style="fill:#000;fill-opacity:.12549;stroke:none" id="rect18554" width="9" height="1" x="-669" y="118" rx="0" ry="1" transform="scale(-1,1)"/><rect style="fill:#fff;fill-opacity:.12549;stroke:none" id="rect18556" width="9" height="1" x="-646" y="119" rx="0" ry="1" transform="scale(-1,1)"/><rect id="rect18558" width="9" height="1" x="-646" y="118" rx="0" ry="1" transform="scale(-1,1)" style="fill:#000;fill-opacity:.12549;stroke:none"/><rect style="fill:#fff;fill-opacity:.12549;stroke:none" id="rect18560" width="9" height="1" x="-669" y="122" rx="0" ry="1" transform="scale(-1,1)"/><rect id="rect18562" width="9" height="1" x="-669" y="121" rx="0" ry="1" transform="scale(-1,1)" style="fill:#000;fill-opacity:.12549;stroke:none"/><rect id="rect18564" width="9" height="1" x="-646" y="122" rx="0" ry="1" transform="scale(-1,1)" style="fill:#fff;fill-opacity:.12549;stroke:none"/><rect style="fill:#000;fill-opacity:.12549;stroke:none" id="rect18566" width="9" height="1" x="-646" y="121" rx="0" ry="1" transform="scale(-1,1)"/><rect id="rect18568" width="9" height="1" x="-669" y="125" rx="0" ry="1" transform="scale(-1,1)" style="fill:#fff;fill-opacity:.12549;stroke:none"/><rect style="fill:#000;fill-opacity:.12549;stroke:none" id="rect18570" width="9" height="1" x="-669" y="124" rx="0" ry="1" transform="scale(-1,1)"/><rect style="fill:#fff;fill-opacity:.12549;stroke:none" id="rect18572" width="9" height="1" x="-646" y="125" rx="0" ry="1" transform="scale(-1,1)"/><rect id="rect18574" width="9" height="1" x="-646" y="124" rx="0" ry="1" transform="scale(-1,1)" style="fill:#000;fill-opacity:.12549;stroke:none"/><rect style="fill:#fff;fill-opacity:.12549;stroke:none" id="rect18576" width="9" height="1" x="-669" y="128" rx="0" ry="1" transform="scale(-1,1)"/><rect id="rect18578" width="9" height="1" x="-669" y="127" rx="0" ry="1" transform="scale(-1,1)" style="fill:#000;fill-opacity:.12549;stroke:none"/><rect id="rect18580" width="9" height="1" x="-646" y="128" rx="0" ry="1" transform="scale(-1,1)" style="fill:#fff;fill-opacity:.12549;stroke:none"/><rect style="fill:#000;fill-opacity:.12549;stroke:none" id="rect18582" width="9" height="1" x="-646" y="127" rx="0" ry="1" transform="scale(-1,1)"/><rect id="rect18584" width="9" height="1" x="-669" y="131" rx="0" ry="1" transform="scale(-1,1)" style="fill:#fff;fill-opacity:.12549;stroke:none"/><rect style="fill:#000;fill-opacity:.12549;stroke:none" id="rect18586" width="9" height="1" x="-669" y="130" rx="0" ry="1" transform="scale(-1,1)"/><rect style="fill:#fff;fill-opacity:.12549;stroke:none" id="rect18588" width="9" height="1" x="-646" y="131" rx="0" ry="1" transform="scale(-1,1)"/><rect id="rect18590" width="9" height="1" x="-646" y="130" rx="0" ry="1" transform="scale(-1,1)" style="fill:#000;fill-opacity:.12549;stroke:none"/><rect style="fill:#fff;fill-opacity:.12549;stroke:none" id="rect18592" width="9" height="1" x="-669" y="134" rx="0" ry="1" transform="scale(-1,1)"/><rect id="rect18594" width="9" height="1" x="-669" y="133" rx="0" ry="1" transform="scale(-1,1)" style="fill:#000;fill-opacity:.12549;stroke:none"/><rect id="rect18596" width="9" height="1" x="-646" y="134" rx="0" ry="1" transform="scale(-1,1)" style="fill:#fff;fill-opacity:.12549;stroke:none"/><rect style="fill:#000;fill-opacity:.12549;stroke:none" id="rect18598" width="9" height="1" x="-646" y="133" rx="0" ry="1" transform="scale(-1,1)"/><rect id="rect18600" width="9" height="1" x="-669" y="137" rx="0" ry="1" transform="scale(-1,1)" style="fill:#fff;fill-opacity:.12549;stroke:none"/><rect style="fill:#000;fill-opacity:.12549;stroke:none" id="rect18602" width="9" height="1" x="-669" y="136" rx="0" ry="1" transform="scale(-1,1)"/><rect style="fill:#fff;fill-opacity:.12549;stroke:none" id="rect18604" width="9" height="1" x="-646" y="137" rx="0" ry="1" transform="scale(-1,1)"/><rect id="rect18606" width="9" height="1" x="-646" y="136" rx="0" ry="1" transform="scale(-1,1)" style="fill:#000;fill-opacity:.12549;stroke:none"/><rect style="fill:#fff;fill-opacity:.12549;stroke:none" id="rect18608" width="9" height="1" x="-669" y="140" rx="0" ry="1" transform="scale(-1,1)"/><rect id="rect18610" width="9" height="1" x="-669" y="139" rx="0" ry="1" transform="scale(-1,1)" style="fill:#000;fill-opacity:.12549;stroke:none"/><rect id="rect18612" width="9" height="1" x="-646" y="140" rx="0" ry="1" transform="scale(-1,1)" style="fill:#fff;fill-opacity:.12549;stroke:none"/><rect style="fill:#000;fill-opacity:.12549;stroke:none" id="rect18614" width="9" height="1" x="-646" y="139" rx="0" ry="1" transform="scale(-1,1)"/><rect id="rect18616" width="9" height="1" x="-669" y="143" rx="0" ry="1" transform="scale(-1,1)" style="fill:#fff;fill-opacity:.12549;stroke:none"/><rect style="fill:#000;fill-opacity:.12549;stroke:none" id="rect18618" width="9" height="1" x="-669" y="142" rx="0" ry="1" transform="scale(-1,1)"/><rect style="fill:#fff;fill-opacity:.12549;stroke:none" id="rect18620" width="9" height="1" x="-646" y="143" rx="0" ry="1" transform="scale(-1,1)"/><rect id="rect18622" width="9" height="1" x="-646" y="142" rx="0" ry="1" transform="scale(-1,1)" style="fill:#000;fill-opacity:.12549;stroke:none"/><rect style="fill:#fff;fill-opacity:.12549;stroke:none" id="rect18624" width="9" height="1" x="-669" y="146" rx="0" ry="1" transform="scale(-1,1)"/><rect id="rect18626" width="9" height="1" x="-669" y="145" rx="0" ry="1" transform="scale(-1,1)" style="fill:#000;fill-opacity:.12549;stroke:none"/><rect id="rect18628" width="9" height="1" x="-646" y="146" rx="0" ry="1" transform="scale(-1,1)" style="fill:#fff;fill-opacity:.12549;stroke:none"/><rect style="fill:#000;fill-opacity:.12549;stroke:none" id="rect18630" width="9" height="1" x="-646" y="145" rx="0" ry="1" transform="scale(-1,1)"/><rect id="rect18632" width="9" height="1" x="-669" y="149" rx="0" ry="1" transform="scale(-1,1)" style="fill:#fff;fill-opacity:.12549;stroke:none"/><rect style="fill:#000;fill-opacity:.12549;stroke:none" id="rect18634" width="9" height="1" x="-669" y="148" rx="0" ry="1" transform="scale(-1,1)"/><rect style="fill:#fff;fill-opacity:.12549;stroke:none" id="rect18636" width="9" height="1" x="-646" y="149" rx="0" ry="1" transform="scale(-1,1)"/><rect id="rect18638" width="9" height="1" x="-646" y="148" rx="0" ry="1" transform="scale(-1,1)" style="fill:#000;fill-opacity:.12549;stroke:none"/></g></g></g></svg>