<svg xmlns="http://www.w3.org/2000/svg" width="222.002" height="44.001" version="1.1" viewBox="0 0 58.738 11.642"><g><g transform="rotate(90 132.33 61.799) rotate(-90 76.351 164.76)"><path fill="#fff" fill-opacity=".063" d="m46.999 164.89c-0.01085 0.0423-0.01654 0.0865-0.01654 0.13229 0 0.29316 0.23601 0.52917 0.52917 0.52917h57.679c0.29316 0 0.52916-0.23601 0.52916-0.52917 0-0.0458-6e-3 -0.09-0.0165-0.13229-0.0586 0.2286-0.26528 0.39688-0.51263 0.39688h-57.679c-0.24735 0-0.45408-0.16828-0.51263-0.39688z"/><rect width="58.737" height="1.058" x="46.982" y="164.23" fill-opacity=".502" rx=".529" ry=".529"/><g fill-opacity=".125" transform="matrix(.26458 0 0 .26458 -104.36 72.949)"><rect width="15" height="1" x="-369" y="-574" fill="#fff" rx="0" ry="1" transform="matrix(0,-1,-1,0,0,0)"/><rect width="15" height="1" x="-369" y="-575" rx="0" ry="1" transform="matrix(0,-1,-1,0,0,0)"/><rect width="15" height="1" x="-340" y="-574" fill="#fff" rx="0" ry="1" transform="matrix(0,-1,-1,0,0,0)"/><g><rect width="15" height="1" x="-340" y="-575" rx="0" ry="1" transform="matrix(0,-1,-1,0,0,0)"/><rect width="15" height="1" x="-369" y="-573" rx="0" ry="1" transform="matrix(0,-1,-1,0,0,0)"/><rect width="15" height="1" x="-340" y="-573" rx="0" ry="1" transform="matrix(0,-1,-1,0,0,0)"/></g></g><g fill-opacity=".125" transform="matrix(.26458 0 0 .26458 -46.415 72.949)"><rect width="15" height="1" x="-369" y="-574" fill="#fff" rx="0" ry="1" transform="matrix(0,-1,-1,0,0,0)"/><rect width="15" height="1" x="-369" y="-575" rx="0" ry="1" transform="matrix(0,-1,-1,0,0,0)"/><rect width="15" height="1" x="-340" y="-574" fill="#fff" rx="0" ry="1" transform="matrix(0,-1,-1,0,0,0)"/><g><rect width="15" height="1" x="-340" y="-575" rx="0" ry="1" transform="matrix(0,-1,-1,0,0,0)"/><rect width="15" height="1" x="-369" y="-573" rx="0" ry="1" transform="matrix(0,-1,-1,0,0,0)"/><rect width="15" height="1" x="-340" y="-573" rx="0" ry="1" transform="matrix(0,-1,-1,0,0,0)"/></g></g><g fill-opacity=".125" transform="matrix(.26458 0 0 .26458 -85.045 72.949)"><rect width="15" height="1" x="-369" y="-574" fill="#fff" rx="0" ry="1" transform="matrix(0,-1,-1,0,0,0)"/><rect width="15" height="1" x="-369" y="-575" rx="0" ry="1" transform="matrix(0,-1,-1,0,0,0)"/><rect width="15" height="1" x="-340" y="-574" fill="#fff" rx="0" ry="1" transform="matrix(0,-1,-1,0,0,0)"/><g><rect width="15" height="1" x="-340" y="-575" rx="0" ry="1" transform="matrix(0,-1,-1,0,0,0)"/><rect width="15" height="1" x="-369" y="-573" rx="0" ry="1" transform="matrix(0,-1,-1,0,0,0)"/><rect width="15" height="1" x="-340" y="-573" rx="0" ry="1" transform="matrix(0,-1,-1,0,0,0)"/></g></g><g fill-opacity=".125" transform="matrix(.26458 0 0 .26458 -65.73 72.949)"><rect width="15" height="1" x="-369" y="-574" fill="#fff" rx="0" ry="1" transform="matrix(0,-1,-1,0,0,0)"/><rect width="15" height="1" x="-369" y="-575" rx="0" ry="1" transform="matrix(0,-1,-1,0,0,0)"/><rect width="15" height="1" x="-340" y="-574" fill="#fff" rx="0" ry="1" transform="matrix(0,-1,-1,0,0,0)"/><g><rect width="15" height="1" x="-340" y="-575" rx="0" ry="1" transform="matrix(0,-1,-1,0,0,0)"/><rect width="15" height="1" x="-369" y="-573" rx="0" ry="1" transform="matrix(0,-1,-1,0,0,0)"/><rect width="15" height="1" x="-340" y="-573" rx="0" ry="1" transform="matrix(0,-1,-1,0,0,0)"/></g></g></g></g></svg>