<svg xmlns="http://www.w3.org/2000/svg" xmlns:xlink="http://www.w3.org/1999/xlink" width="13" height="20" version="1.1" viewBox="0 0 3.44 5.292"><defs><linearGradient id="linearGradient13957" x1="754" x2="754" y1="287" y2="343" gradientTransform="translate(-617,-968)" gradientUnits="userSpaceOnUse"><stop offset="0" stop-color="#282828"/><stop offset="1" stop-color="#202020"/></linearGradient><linearGradient id="linearGradient13959" x1="790.56" x2="790.56" y1="321" y2="373" gradientTransform="matrix(1.2857 0 0 1 -843.43 -1e3)" gradientUnits="userSpaceOnUse"><stop offset="0" stop-color="#fff" stop-opacity=".016"/><stop offset=".5" stop-color="#fff" stop-opacity=".035"/><stop offset="1" stop-color="#fff" stop-opacity=".017"/></linearGradient><linearGradient id="linearGradient13961" x1="789" x2="786" y1="347" y2="347" gradientTransform="rotate(90,808.5,191.5)" gradientUnits="userSpaceOnUse"><stop offset="0" stop-color="#fff" stop-opacity=".098"/><stop offset=".5" stop-color="#fff" stop-opacity=".079"/><stop offset="1" stop-color="#fff" stop-opacity=".037"/></linearGradient><linearGradient id="linearGradient13963" x1="789" x2="786" y1="347" y2="347" gradientTransform="matrix(0 -1 -1 0 1e3 968)" gradientUnits="userSpaceOnUse"><stop offset="0" stop-opacity=".372"/><stop offset="1" stop-opacity="0"/></linearGradient></defs><g><g><g transform="translate(-87.482 -208.49) matrix(.26458 0 0 .26458 -83.571 164.7) matrix(0 -.99995 1 0 477.5 828.46)"><g><rect width="13" height="20" x="169" y="-663" fill="url(#linearGradient13957)" rx="1" ry="1" transform="rotate(90)"/><rect width="7" height="20" x="172" y="-663" fill="url(#linearGradient13959)" transform="rotate(90)"/><path fill="url(#linearGradient13961)" d="m663 170c0-0.554-0.446-1-1-1h-18c-0.554 0-1.0263 0.44663-1 1v2h20z"/><path fill="url(#linearGradient13963)" d="m663 181c0 0.554-0.446 1-1 1h-18c-0.554 0-1-0.446-1-1v-2h20z"/></g><rect width="1" height="20" x="175" y="-663" fill="#fff" fill-opacity=".502" transform="rotate(90)"/><rect width="1" height="20" x="174" y="-663" fill-opacity=".251" transform="rotate(90)"/></g></g></g></svg>