<svg xmlns="http://www.w3.org/2000/svg" xmlns:svg="http://www.w3.org/2000/svg" id="svg84" width="40" height="119" version="1.1"><metadata id="metadata90"/><path id="path8" d="M 6,58.500404 H 16 V 59.5 H 6 Z" color="#000" style="fill:#050505;stroke-width:.999798"/><path id="path16" d="m 32,19.500822 h -8 v 0.999596 h 8 z" color="#000" style="fill:#050505;stroke-width:.999798"/><path id="path18" d="m 32,32.500769 h -8 v 0.999596 h 8 z" color="#000" style="fill:#050505;stroke-width:.999798"/><path id="path20" d="m 32,45.500258 h -8 v 0.999596 h 8 z" color="#000" style="fill:#050505;stroke-width:.999798"/><path id="path22" d="M 34,58.500404 H 24 V 59.5 h 10 z" color="#000" style="fill:#050505;stroke-width:.999798"/><path id="path32" d="m 32,6.500761 -8,-5.03e-4 v 0.999596 l 8,5.03e-4 z" color="#000" style="fill:#050505;stroke-width:.999798"/><path id="path40" d="M 6,59.000404 H 16 V 60 H 6 Z" color="#000" style="fill:#636363;stroke-width:.999798"/><path id="path42" d="M 34,59.000404 H 24 V 60 h 10 z" color="#000" style="fill:#636363;stroke-width:.999798"/><path id="path58" d="m 32,20.000258 h -8 v 0.999596 h 8 z" color="#000" style="fill:#404040;stroke-width:.999798"/><path id="path60" d="m 32,33.000258 h -8 v 0.999596 h 8 z" color="#000" style="fill:#404040;stroke-width:.999798"/><path id="path62" d="m 32,46.000258 h -8 v 0.999596 h 8 z" color="#000" style="fill:#404040;stroke-width:.999798"/><path id="path72" d="M 32,7.000404 24,7.000258 V 7.999854 L 32,8 Z" color="#000" style="fill:#404040;stroke-width:.999798"/><path id="path40-3" d="m 18,6 h 4 v 107 h -4 z" style="color:#000;fill:#050505;stroke-width:1"/><path id="path42-6" d="m 17,114 h 6 V 5 h -6 z m 1,-1 V 6.000001 h 4 V 113 Z" style="fill:#505050;paint-order:fill markers stroke"/><path style="fill:#050505;stroke-width:.999798" id="path16-0" d="m 32,84.500822 h -8 v 0.999596 h 8 z" color="#000"/><path style="fill:#050505;stroke-width:.999798" id="path18-6" d="m 32,97.500769 h -8 v 0.999596 h 8 z" color="#000"/><path style="fill:#050505;stroke-width:.999798" id="path20-2" d="m 32,110.50025 h -8 v 0.9996 h 8 z" color="#000"/><path style="fill:#050505;stroke-width:.999798" id="path32-6" d="m 32,71.500761 -8,-5.03e-4 v 0.999596 l 8,5.03e-4 z" color="#000"/><path style="fill:#404040;stroke-width:.999798" id="path58-1" d="m 32,85.000258 h -8 v 0.999596 h 8 z" color="#000"/><path style="fill:#404040;stroke-width:.999798" id="path60-8" d="m 32,98.000258 h -8 v 0.999596 h 8 z" color="#000"/><path style="fill:#404040;stroke-width:.999798" id="path62-7" d="m 32,111.00025 h -8 v 0.9996 h 8 z" color="#000"/><path style="fill:#404040;stroke-width:.999798" id="path72-9" d="m 32,72.000404 -8,-1.46e-4 v 0.999596 L 32,73 Z" color="#000"/><path style="fill:#050505;stroke-width:.999798" id="path16-02" d="M 16,19.500676 H 8 v 0.999596 h 8 z" color="#000"/><path style="fill:#050505;stroke-width:.999798" id="path18-3" d="M 16,32.500623 H 8 v 0.999596 h 8 z" color="#000"/><path style="fill:#050505;stroke-width:.999798" id="path20-7" d="M 16,45.500112 H 8 v 0.999596 h 8 z" color="#000"/><path style="fill:#050505;stroke-width:.999798" id="path32-5" d="M 16,6.500615 8,6.500112 v 0.999596 l 8,5.03e-4 z" color="#000"/><path style="fill:#404040;stroke-width:.999798" id="path58-9" d="M 16,20.000112 H 8 v 0.999596 h 8 z" color="#000"/><path style="fill:#404040;stroke-width:.999798" id="path60-2" d="M 16,33.000112 H 8 v 0.999596 h 8 z" color="#000"/><path style="fill:#404040;stroke-width:.999798" id="path62-2" d="M 16,46.000112 H 8 v 0.999596 h 8 z" color="#000"/><path style="fill:#404040;stroke-width:.999798" id="path72-8" d="M 16,7.000258 8,7.000112 v 0.999596 l 8,1.46e-4 z" color="#000"/><path id="path16-0-9" d="M 16,84.500672 H 8 v 0.9996 h 8 z" color="#000" style="fill:#050505;stroke-width:.999798"/><path id="path18-6-7" d="M 16,97.500622 H 8 v 0.9996 h 8 z" color="#000" style="fill:#050505;stroke-width:.999798"/><path id="path20-2-3" d="M 16,110.50011 H 8 v 0.9996 h 8 z" color="#000" style="fill:#050505;stroke-width:.999798"/><path id="path32-6-6" d="m 16,71.500612 -8,-5e-4 v 0.9996 l 8,5e-4 z" color="#000" style="fill:#050505;stroke-width:.999798"/><path id="path58-1-1" d="M 16,85.000112 H 8 v 0.9996 h 8 z" color="#000" style="fill:#404040;stroke-width:.999798"/><path id="path60-8-2" d="M 16,98.000112 H 8 v 0.9996 h 8 z" color="#000" style="fill:#404040;stroke-width:.999798"/><path id="path62-7-9" d="M 16,111.00011 H 8 v 0.9996 h 8 z" color="#000" style="fill:#404040;stroke-width:.999798"/><path id="path72-9-3" d="m 16,72.000262 -8,-1.5e-4 v 0.9996 l 8,1.4e-4 z" color="#000" style="fill:#404040;stroke-width:.999798"/></svg>