<svg xmlns="http://www.w3.org/2000/svg" xmlns:svg="http://www.w3.org/2000/svg" id="svg46" width="85" height="40" version="1.1"><metadata id="metadata52"/><path id="path2" fill="#050505" stroke-width="1" d="m 42.999797,24 -2e-4,9 h -0.999596 l 2e-4,-9 z" color="#000"/><path id="path4" fill="#050505" stroke-width="1" d="m 42.999797,6 -2e-4,9 h -0.999596 l 2e-4,-9 z" color="#000"/><path id="path6" fill="#050505" stroke-width="1" d="m 7.999796,24 -2e-4,9 H 7 l 2e-4,-9 z" color="#000"/><path id="path8" fill="#050505" stroke-width="1" d="m 7.999796,6 -2e-4,9 H 7 l 2e-4,-9 z" color="#000"/><path id="path10" fill="#050505" stroke-width="1" d="m 77.9998,24 -2e-4,9 H 77 l 2e-4,-9 z" color="#000"/><path id="path12" fill="#050505" stroke-width="1" d="m 77.9998,6 -2e-4,9 H 77 l 2e-4,-9 z" color="#000"/><path id="path14" fill="#050505" stroke-width="1" d="m 31.999797,24 2e-6,7 h -0.999596 l -2e-6,-7 z" color="#000"/><path id="path16" fill="#050505" stroke-width="1" d="m 31.999999,8 -4.02e-4,7 h -0.999596 l 4.02e-4,-7 z" color="#000"/><path id="path18" fill="#050505" stroke-width="1" d="m 53.999797,24 2e-6,7 h -0.999596 l -2e-6,-7 z" color="#000"/><path id="path20" fill="#050505" stroke-width="1" d="m 53.999999,8 -4.02e-4,7 h -0.999596 l 4.02e-4,-7 z" color="#000"/><path id="path22" fill="#636363" stroke-width="1" d="m 42.999898,7 -2e-4,9 h -0.999596 l 2e-4,-9 z" color="#000"/><path id="path24" fill="#636363" stroke-width="1" d="m 42.999597,34 2e-4,-9 h -0.999596 l -2e-4,9 z" color="#000"/><path id="path26" fill="#4b4b4b" stroke-width="1" d="m 7.999796,7 -2e-4,9 H 7 l 2e-4,-9 z" color="#000"/><path id="path28" fill="#4b4b4b" stroke-width="1" d="m 7.999596,34 2e-4,-9 H 7.0002 L 7,34 Z" color="#000"/><path id="path30" fill="#4b4b4b" stroke-width="1" d="m 77.9998,7 -2e-4,9 H 77 l 2e-4,-9 z" color="#000"/><path id="path32" fill="#4b4b4b" stroke-width="1" d="m 77.9996,34 2e-4,-9 H 77.0002 L 77,34 Z" color="#000"/><path id="path34" fill="#4b4b4b" stroke-width="1" d="m 31.999999,9 -4.02e-4,7 h -0.999596 l 4.02e-4,-7 z" color="#000"/><path id="path36" fill="#4b4b4b" stroke-width="1" d="m 31.999799,32 -2e-6,-7 h -0.999596 l 2e-6,7 z" color="#000"/><path id="path38" fill="#4b4b4b" stroke-width="1" d="m 53.999999,9 -4.02e-4,7 h -0.999596 l 4.02e-4,-7 z" color="#000"/><path id="path40" fill="#4b4b4b" stroke-width="1" d="m 53.999799,32 -2e-6,-7 h -0.999596 l 2e-6,7 z" color="#000"/><path style="color:#000;fill:#050505;stroke-width:1" id="path2-3" d="m 78.00001,18 v 4 H 7 v -4 z"/><path id="path28-6" d="m 6,17 v 6 h 73 v -6 z m 1,1 h 71 v 4 H 7 Z" style="fill:#4b4b4b;paint-order:fill markers stroke"/></svg>