<svg xmlns="http://www.w3.org/2000/svg" xmlns:svg="http://www.w3.org/2000/svg" id="svg18" width="14" height="22" version="1.1"><metadata id="metadata24"/><path id="path2" d="M 4,4 C 3.446,4 3,4.446 3,5 v 3 h 8 V 5 C 11,4.446 10.554,4 10,4 Z M 5.25,5.5 C 5.66421,5.5 6,5.83579 6,6.25 6,6.66421 5.66421,7 5.25,7 4.83579,7 4.5,6.66421 4.5,6.25 4.5,5.83579 4.83579,5.5 5.25,5.5 Z m 3.5,0 C 9.16421,5.5 9.5,5.83579 9.5,6.25 9.5,6.66421 9.16421,7 8.75,7 8.33579,7 8,6.66421 8,6.25 8,5.83579 8.33579,5.5 8.75,5.5 Z" color="#000001" style="fill:#e86317;fill-opacity:1"/><rect id="rect4" width="2" height="3" x="4" y="15" rx="1" ry="1" style="fill:#e86317;fill-opacity:1"/><rect id="rect6" width="2" height="3" x="8" y="15" rx="1" ry="1" style="fill:#e86317;fill-opacity:1"/><rect id="rect8" width="2" height="5" x="0" y="9" color="#000001" rx="1" ry="1" style="fill:#e86317;fill-opacity:1"/><path id="path10" d="m 3,9 v 6.4219 c 0,0.32317 0.223,0.57812 0.5,0.57812 h 7 c 0.277,0 0.5,-0.25496 0.5,-0.57812 V 9 H 3.5 Z" color="#000001" style="fill:#e86317;fill-opacity:1"/><rect id="rect12" width="2" height="5" x="12" y="9" color="#000001" rx="1" ry="1" style="fill:#e86317;fill-opacity:1"/></svg>