<svg xmlns="http://www.w3.org/2000/svg" width="4" height="103" version="1.1"><g display="none" transform="translate(0,-2)"><rect width="984.29" height="655.71" x="-512.86" y="-273.57" fill="#252525" color="#000" display="inline"/></g><rect width="4" height="1" stroke-width=".707" color="#000"/><rect width="4" height="1" y="2" stroke-width=".707" color="#000"/><rect width="4" height="1" y="4" stroke-width=".707" color="#000"/><rect width="4" height="1" y="6" stroke-width=".707" color="#000"/><rect width="4" height="1" y="8" stroke-width=".707" color="#000"/><rect width="4" height="1" y="10" stroke-width=".707" color="#000"/><rect width="4" height="1" y="12" stroke-width=".707" color="#000"/><rect width="4" height="1" y="14" stroke-width=".707" color="#000"/><rect width="4" height="1" y="16" stroke-width=".707" color="#000"/><rect width="4" height="1" y="18" stroke-width=".707" color="#000"/><rect width="4" height="1" y="20" stroke-width=".707" color="#000"/><rect width="4" height="1" y="22" stroke-width=".707" color="#000"/><rect width="4" height="1" y="24" stroke-width=".707" color="#000"/><rect width="4" height="1" y="26" stroke-width=".707" color="#000"/><rect width="4" height="1" y="28" stroke-width=".707" color="#000"/><rect width="4" height="1" y="30" stroke-width=".707" color="#000"/><rect width="4" height="1" y="32" stroke-width=".707" color="#000"/><rect width="4" height="1" y="34" stroke-width=".707" color="#000"/><rect width="4" height="1" y="36" stroke-width=".707" color="#000"/><rect width="4" height="1" y="38" stroke-width=".707" color="#000"/><rect width="4" height="1" y="40" stroke-width=".707" color="#000"/><rect width="4" height="1" y="42" stroke-width=".707" color="#000"/><rect width="4" height="1" y="44" stroke-width=".707" color="#000"/><rect width="4" height="1" y="46" stroke-width=".707" color="#000"/><rect width="4" height="1" y="48" stroke-width=".707" color="#000"/><rect width="4" height="1" y="50" stroke-width=".707" color="#000"/><rect width="4" height="1" y="52" stroke-width=".707" color="#000"/><rect width="4" height="1" y="54" stroke-width=".707" color="#000"/><rect width="4" height="1" y="56" stroke-width=".707" color="#000"/><rect width="4" height="1" y="58" stroke-width=".707" color="#000"/><rect width="4" height="1" y="60" stroke-width=".707" color="#000"/><rect width="4" height="1" y="62" stroke-width=".707" color="#000"/><rect width="4" height="1" y="64" stroke-width=".707" color="#000"/><rect width="4" height="1" y="66" stroke-width=".707" color="#000"/><rect width="4" height="1" y="68" stroke-width=".707" color="#000"/><rect width="4" height="1" y="70" stroke-width=".707" color="#000"/><rect width="4" height="1" y="72" stroke-width=".707" color="#000"/><rect width="4" height="1" y="74" stroke-width=".707" color="#000"/><rect width="4" height="1" y="76" stroke-width=".707" color="#000"/><rect width="4" height="1" y="78" stroke-width=".707" color="#000"/><rect width="4" height="1" y="80" stroke-width=".707" color="#000"/><rect width="4" height="1" y="82" stroke-width=".707" color="#000"/><rect width="4" height="1" y="84" stroke-width=".707" color="#000"/><rect width="4" height="1" y="86" stroke-width=".707" color="#000"/><rect width="4" height="1" y="88" stroke-width=".707" color="#000"/><rect width="4" height="1" y="90" stroke-width=".707" color="#000"/><rect width="4" height="1" y="92" stroke-width=".707" color="#000"/><rect width="4" height="1" y="94" stroke-width=".707" color="#000"/><rect width="4" height="1" y="96" stroke-width=".707" color="#000"/><rect width="4" height="1" y="98" stroke-width=".707" color="#000"/><rect width="4" height="1" y="100" stroke-width=".707" color="#000"/><rect width="4" height="1" y="102" stroke-width=".707" color="#000"/></svg>