<svg xmlns="http://www.w3.org/2000/svg" xmlns:svg="http://www.w3.org/2000/svg" id="svg32" width="92" height="40" version="1.1" viewBox="0 0 46 20"><metadata id="metadata38"/><g id="g10" transform="translate(-2,-2)" style="display:inline;fill:none"><path id="path2" d="M 16,8 H 9 v 4 h 5 v 2 H 9 v 1 h 7 V 11 H 11 V 9 h 5 V 8"/><path id="path4" d="m 26,8 v 7 h 2 V 9 h 3 v 6 h 2 V 8 h -7"/><path id="path6" d="m 34,8 v 7 h 7 V 14 H 36 V 9 h 5 V 8 h -7"/><path id="path8" d="m 20,15 v -3.5 l -3,-3 V 8 h 1.5 L 21,10.5 23.5,8 H 25 v 0.5 l -3,3 V 15 h -2"/></g><text style="font-style:normal;font-variant:normal;font-weight:400;font-stretch:normal;font-size:11.27830696px;line-height:0%;font-family:'Latina Essential';-inkscape-font-specification:'Latina Essential';writing-mode:lr-tb;opacity:1;fill:#d2d2d1;fill-opacity:1;stroke:#000;stroke-width:.84600008;stroke-linejoin:miter;stroke-miterlimit:4;stroke-dasharray:none;stroke-opacity:1" id="text4532" x=".057" y="14.087" transform="scale(1.0060601,0.99397642)" xml:space="preserve"><tspan id="tspan4530" x=".057" y="14.087" style="stroke-width:.84600008">LEADER</tspan></text></svg>