<svg xmlns="http://www.w3.org/2000/svg" xmlns:svg="http://www.w3.org/2000/svg" id="svg13" width="52" height="104" version="1.1" viewBox="0 0 26 52"><g id="g7" fill="none" stroke="#000001" stroke-linejoin="round" stroke-width="1.6"><path id="path14" d="m 3.4997,27.5001 v 2 h 18 v -2 z"/><path id="path14-2" d="m 3.4996,32.5001 v 2 h 18 v -2 z"/><path id="path14-1" d="m 3.5000999,37.5004 v 2 H 21.5001 v -2 z"/><path id="path14-6" d="m 3.5001002,42.5004 v 2 H 21.5001 v -2 z"/><path id="path6" d="m5.3641 18.098 4.4253-4.4252-4.4253-4.4252 1.1064-1.1063 5.5315 5.5315-5.5315 5.5315z"/><path id="path7" d="m20.636 18.098-4.4253-4.4253 4.4253-4.4253-1.1064-1.1064-5.5315 5.5315 5.5315 5.5316 1.1064-1.1064z"/></g><g id="g13" fill="#666668"><path id="path11" d="M 3.5 27.5 L 3.5 29.5 L 7.4824219 29.5 L 11.484375 29.5 L 21.5 29.5 L 21.5 27.5 L 12.787109 27.5 L 9.7753906 27.5 L 3.5 27.5 z"/><path id="path11-1" d="m 3.4996,32.5001 v 2 H 7.482022 11.483975 21.4996 v -2 H 12.786709 9.7749902 Z"/><path id="path11-13" d="m 3.5001004,37.5004 v 2 H 7.4825224 11.484475 21.5001 v -2 H 12.787209 9.7754914 Z"/><path id="path11-8" d="m 3.5000995,42.5004 v 2 H 7.4825215 11.484475 21.5001 v -2 H 12.787209 9.7754905 Z"/><path id="path12" stroke-width=".94" d="m5.3641 18.098 4.4253-4.4252-4.4253-4.4252 1.1064-1.1063 5.5315 5.5315-5.5315 5.5315z"/><path id="path13" stroke-width=".94" d="m20.636 18.098-4.4253-4.4253 4.4253-4.4253-1.1064-1.1064-5.5315 5.5315 5.5315 5.5316 1.1064-1.1064z"/></g></svg>