<svg xmlns="http://www.w3.org/2000/svg" xmlns:xlink="http://www.w3.org/1999/xlink" width="32" height="32" version="1.1"><title>Mixxx application icon</title><defs><radialGradient id="h" cx="422.82" cy="489.91" r="117.14" gradientTransform="matrix(-2.7949 0 0 2.0016 -839.45 -893.93)" gradientUnits="userSpaceOnUse" xlink:href="#a"/><radialGradient id="i" cx="576.93" cy="486.67" r="117.14" gradientTransform="matrix(2.9485 -1.3567e-7 8.3868e-6 1.9847 -1724.9 -879.26)" gradientUnits="userSpaceOnUse" xlink:href="#a"/><linearGradient id="v" x1="302.86" x2="302.86" y1="366.65" y2="609.51" gradientTransform="matrix(5.4518 0 0 1.9847 -3212.5 -882)" gradientUnits="userSpaceOnUse" xlink:href="#c"/><linearGradient id="u" x1="25.125" x2="25.125" y1="6" y2="43.642" gradientTransform="matrix(1 0 0 .87805 7.0097e-7 1.4268)" gradientUnits="userSpaceOnUse"><stop offset="0" stop-color="#f1f1f1"/><stop offset="1" stop-color="#ddd" stop-opacity=".937"/></linearGradient><linearGradient id="t" x1="18.385" x2="24.66" y1="3.629" y2="22.5" gradientUnits="userSpaceOnUse"><stop offset="0" stop-color="#fff" stop-opacity="0"/><stop offset=".5" stop-color="#fff"/><stop offset="1" stop-color="#fff" stop-opacity="0"/></linearGradient><radialGradient id="e" cx="422.82" cy="489.91" r="117.14" gradientTransform="matrix(-1.7848 0 0 1.9864 -371.35 -888.32)" gradientUnits="userSpaceOnUse" xlink:href="#a"/><linearGradient id="a"><stop offset="0"/><stop offset="1" stop-opacity="0"/></linearGradient><radialGradient id="g" cx="576.93" cy="486.67" r="117.14" gradientTransform="matrix(2.0207 .00036413 -.00027703 1.9847 -996.46 -879.47)" gradientUnits="userSpaceOnUse" xlink:href="#a"/><linearGradient id="c"><stop offset="0" stop-opacity="0"/><stop offset=".5"/><stop offset="1" stop-opacity="0"/></linearGradient><linearGradient id="s" x1="302.86" x2="302.86" y1="366.65" y2="609.51" gradientTransform="matrix(3.5307 0 0 1.9697 -1897.5 -872.89)" gradientUnits="userSpaceOnUse" xlink:href="#c"/><linearGradient id="q" x1="24.375" x2="27.195" y1="-43.625" y2="-43.625" gradientTransform="matrix(.8 0 0 .74468 -2.3 -6.1277)" gradientUnits="userSpaceOnUse"><stop offset="0" stop-color="#797979"/><stop offset="1" stop-color="#babdb6"/></linearGradient><linearGradient id="p" x1="12.979" x2="12.979" y1="10.432" y2="42.633" gradientTransform="matrix(.65517 0 0 .45946 1.6207 12.973)" gradientUnits="userSpaceOnUse"><stop offset="0" stop-color="#6b6d68"/><stop offset=".103" stop-color="#4d4e4b"/><stop offset="1" stop-color="#454643"/></linearGradient><linearGradient id="o" x1="14" x2="45.125" y1="-10.188" y2="-40.313" gradientTransform="matrix(.73913 0 0 .65217 -1.2174 -8.3478)" gradientUnits="userSpaceOnUse"><stop offset="0" stop-color="#fff"/><stop offset="1" stop-color="#fff" stop-opacity="0"/></linearGradient><linearGradient id="m" x1="23.156" x2="23.156" y1="37.015" y2="10" gradientTransform="matrix(.63158 0 0 .42308 -.28947 14.058)" gradientUnits="userSpaceOnUse"><stop offset="0" stop-color="#2e3436"/><stop offset="1" stop-color="#3e3e3e"/></linearGradient><linearGradient id="n" x1="24.986" x2="24.986" y1="37.924" y2="9" gradientTransform="matrix(.52109 0 0 .37931 2.4801 14.897)" gradientUnits="userSpaceOnUse"><stop offset="0" stop-color="#6b6d68"/><stop offset=".586" stop-color="#4d4e4b"/><stop offset="1" stop-color="#454643"/></linearGradient><linearGradient id="x" x1="25.125" x2="25.125" y1="6" y2="43.642" gradientTransform="matrix(.99938 0 0 .92618 .014916 1.2717)" gradientUnits="userSpaceOnUse"><stop offset="0" stop-color="#f1f1f1"/><stop offset="1" stop-color="#ddd" stop-opacity=".937"/></linearGradient><linearGradient id="w" x1="18.385" x2="24.66" y1="3.629" y2="22.5" gradientTransform="matrix(1 0 0 1.0286 .0065688 .85715)" gradientUnits="userSpaceOnUse"><stop offset="0" stop-color="#fff" stop-opacity="0"/><stop offset=".5" stop-color="#fff"/><stop offset="1" stop-color="#fff" stop-opacity="0"/></linearGradient><linearGradient id="r" x1="302.86" x2="302.86" y1="366.65" y2="609.51" gradientTransform="matrix(3.5307 0 0 1.9697 -1897.5 -872.89)" gradientUnits="userSpaceOnUse"><stop offset="0" stop-opacity="0"/><stop offset=".5"/><stop offset="1" stop-opacity="0"/></linearGradient><radialGradient id="f" cx="576.93" cy="486.67" r="117.14" gradientTransform="matrix(2.0207 .00036413 -.00027703 1.9847 -996.46 -879.47)" gradientUnits="userSpaceOnUse" xlink:href="#a"/><radialGradient id="d" cx="422.82" cy="489.91" r="117.14" gradientTransform="matrix(-1.7848 0 0 1.9864 -371.35 -888.32)" gradientUnits="userSpaceOnUse" xlink:href="#a"/><linearGradient id="k" x1="12.979" x2="12.979" y1="10.432" y2="42.633" gradientTransform="matrix(.65517 0 0 .45946 2.6207 12.973)" gradientUnits="userSpaceOnUse"><stop offset="0" stop-color="#6b6d68"/><stop offset=".103" stop-color="#4d4e4b"/><stop offset="1" stop-color="#454643"/></linearGradient><linearGradient id="l" x1="14" x2="45.125" y1="-10.188" y2="-40.313" gradientTransform="matrix(.73913 0 0 .65217 -.21739 -8.3478)" gradientUnits="userSpaceOnUse"><stop offset="0" stop-color="#fff"/><stop offset="1" stop-color="#fff" stop-opacity="0"/></linearGradient><linearGradient id="j" x1="24.986" x2="24.986" y1="37.924" y2="9" gradientTransform="matrix(.52109 0 0 .37931 3.4801 14.897)" gradientUnits="userSpaceOnUse"><stop offset="0" stop-color="#6b6d68"/><stop offset=".586" stop-color="#4d4e4b"/><stop offset="1" stop-color="#454643"/></linearGradient></defs><g><path d="m3.0469 18.652c-0.96677 0-1.7266 0.84307-1.7266 1.8438v23.008c0 1.0007 0.75979 1.8438 1.7266 1.8438h25.826c0.96677 0 1.7266-0.84307 1.7266-1.8438v-23.008c0-1.0007-0.75979-1.8438-1.7266-1.8438zm0 0.69531h25.826c0.56332 0 1.0332 0.49152 1.0332 1.1484v23.008c0 0.65692-0.46988 1.1484-1.0332 1.1484h-25.826c-0.56332 0-1.0332-0.49152-1.0332-1.1484v-23.008c0-0.65692 0.46988-1.1484 1.0332-1.1484z" color="#000" color-rendering="auto" dominant-baseline="auto" image-rendering="auto" shape-rendering="auto" solid-color="#000000" stop-color="#000" transform="translate(0,-16)" style="font-feature-settings:normal;font-variant-alternates:normal;font-variant-caps:normal;font-variant-east-asian:normal;font-variant-ligatures:normal;font-variant-numeric:normal;font-variant-position:normal;font-variation-settings:normal;inline-size:0;isolation:auto;mix-blend-mode:normal;shape-margin:0;shape-padding:0;text-decoration-color:#000;text-decoration-line:none;text-decoration-style:solid;text-indent:0;text-orientation:mixed;text-transform:none;white-space:normal"/><path d="m5.584 12.666c-0.8714 0-1.584 0.71258-1.584 1.584v0.16602c0 0.8714 0.71258 1.584 1.584 1.584h5.084v-3.334zm15.748 0v0.33398 3h5.084c0.8714 0 1.584-0.71258 1.584-1.584v-0.16602c0-0.8714-0.71258-1.584-1.584-1.584zm-15.748 0.66797h4.416v1.998h-4.416c-0.5136 0-0.91602-0.40242-0.91602-0.91602v-0.16602c0-0.5136 0.40242-0.91602 0.91602-0.91602zm16.416 0h4.416c0.5136 0 0.91602 0.40242 0.91602 0.91602v0.16602c0 0.5136-0.40242 0.91602-0.91602 0.91602h-4.416z" color="#000" color-rendering="auto" dominant-baseline="auto" image-rendering="auto" shape-rendering="auto" solid-color="#000000" stop-color="#000" transform="translate(0,-16) translate(0,16)" style="font-feature-settings:normal;font-variant-alternates:normal;font-variant-caps:normal;font-variant-east-asian:normal;font-variant-ligatures:normal;font-variant-numeric:normal;font-variant-position:normal;font-variation-settings:normal;inline-size:0;isolation:auto;mix-blend-mode:normal;shape-margin:0;shape-padding:0;text-decoration-color:#000;text-decoration-line:none;text-decoration-style:solid;text-indent:0;text-orientation:mixed;text-transform:none;white-space:normal"/><g><path d="m11.584 7.332c-0.8714 0-1.584 0.71258-1.584 1.584v10.168c0 0.8714 0.71258 1.584 1.584 1.584h8.832c0.8714 0 1.584-0.71258 1.584-1.584v-10.168c0-0.8714-0.71258-1.584-1.584-1.584zm2 1.3359h4.832c0.5136 0 0.91602 0.40242 0.91602 0.91602v5.5c0 0.5136-0.40242 0.91602-0.91602 0.91602h-4.832c-0.5136 0-0.91602-0.40242-0.91602-0.91602v-5.5c0-0.5136 0.40242-0.91602 0.91602-0.91602z" color="#000" color-rendering="auto" dominant-baseline="auto" image-rendering="auto" shape-rendering="auto" solid-color="#000000" stop-color="#000" transform="translate(0,-16) translate(0,16)" style="font-feature-settings:normal;font-variant-alternates:normal;font-variant-caps:normal;font-variant-east-asian:normal;font-variant-ligatures:normal;font-variant-numeric:normal;font-variant-position:normal;font-variation-settings:normal;inline-size:0;isolation:auto;mix-blend-mode:normal;shape-margin:0;shape-padding:0;text-decoration-color:#000;text-decoration-line:none;text-decoration-style:solid;text-indent:0;text-orientation:mixed;text-transform:none;white-space:normal"/></g><path d="m25.785-17c-0.42954 0-0.78516 0.35562-0.78516 0.78516v0.42969c0 0.42954 0.35562 0.78516 0.78516 0.78516h5.0957c0.42954 0 0.78516-0.35562 0.78516-0.78516v-0.42969c0-0.42954-0.35562-0.78516-0.78516-0.78516zm0 0.66602h5.0957c0.07174 0 0.11914 0.04741 0.11914 0.11914v0.42969c0 0.07174-0.04741 0.11914-0.11914 0.11914h-5.0957c-0.07173 0-0.11914-0.04741-0.11914-0.11914v-0.42969c0-0.07173 0.04741-0.11914 0.11914-0.11914z" color="#000" color-rendering="auto" dominant-baseline="auto" image-rendering="auto" shape-rendering="auto" solid-color="#000000" stop-color="#000" transform="translate(0,-16) rotate(90)" style="font-feature-settings:normal;font-variant-alternates:normal;font-variant-caps:normal;font-variant-east-asian:normal;font-variant-ligatures:normal;font-variant-numeric:normal;font-variant-position:normal;font-variation-settings:normal;inline-size:0;isolation:auto;mix-blend-mode:normal;shape-margin:0;shape-padding:0;text-decoration-color:#000;text-decoration-line:none;text-decoration-style:solid;text-indent:0;text-orientation:mixed;text-transform:none;white-space:normal"/><g><path d="m-40-8h4v1h-4z" color="#000" transform="translate(0,-16) translate(0,2) matrix(0,-1,-1,0,0,0)"/><path d="m-38.767-11h2.767v1h-2.767z" color="#000" transform="translate(0,-16) translate(0,2) matrix(0,-1,-1,0,0,0)"/><path d="m-38-14h2v1h-2z" color="#000" transform="translate(0,-16) translate(0,2) matrix(0,-1,-1,0,0,0)"/><path d="m-40-17h4v1h-4z" color="#000" transform="translate(0,-16) translate(0,2) matrix(0,-1,-1,0,0,0)"/><path d="m-38-20h2v1h-2z" color="#000" transform="translate(0,-16) translate(0,2) matrix(0,-1,-1,0,0,0)"/><path d="m-38.667-23h2.6667v1h-2.6667z" color="#000" transform="translate(0,-16) translate(0,2) matrix(0,-1,-1,0,0,0)"/><path d="m-40-26h4v1h-4z" color="#000" transform="translate(0,-16) translate(0,2) matrix(0,-1,-1,0,0,0)"/></g></g><g display="none" transform="translate(0,-16)"><g display="inline" opacity=".354" transform="matrix(-.017501 0 0 .016598 5.6277 42.562)"><rect width="1999.9" height="481.99" x="-2021.2" y="-154.33" fill="url(#v)" color="#000" display="inline" opacity=".402"/><path fill="url(#i)" d="m-23.829-154.33v481.98c142.87 0.90732 345.4-107.99 345.4-241.02 0-133.03-159.44-240.96-345.4-240.96z" color="#000" display="inline" opacity=".402"/><path fill="url(#h)" d="m-2021.2-154.33v481.98c-141.82 0.90732-342.84-107.99-342.84-241.02 0-133.03 158.26-240.96 342.84-240.96z" color="#000" display="inline" opacity=".402"/></g><g stroke-linecap="round"><rect width="42.88" height="36" x="2.5" y="7.5" fill="#b8b8b8" stroke="#888a85" color="#000" display="inline" rx="2.071" ry="2.071"/><rect width="43" height="36" x="2.5" y="4.5" fill="url(#u)" stroke="#888a85" color="#000" display="inline" rx="2.071" ry="2.071"/><rect width="41" height="34" x="3.5" y="5.5" fill="none" stroke="#fff" color="#000" display="inline" opacity=".825" rx="1.011" ry="1.011"/></g><rect width="42" height="35" x="3" y="5" fill="url(#t)" color="#000" display="inline" rx="1.011" ry="1.011"/><g display="inline" opacity=".354" transform="matrix(-.012353 0 0 .01231 18.09 25.9)"><rect width="1295.2" height="478.36" x="-1126" y="-150.7" fill="url(#s)" color="#000" display="inline" opacity=".402"/><path fill="url(#g)" d="m169.2-154.33v481.98c133.94 0.90732 323.8-107.99 323.8-241.02 0-133.03-149.46-240.96-323.8-240.96z" color="#000" display="inline" opacity=".402"/><path fill="url(#e)" d="m-1126-154.33v478.33c-133.94 0.90045-323.8-107.17-323.8-239.2 0-132.03 149.46-239.13 323.8-239.13z" color="#000" display="inline" opacity=".402"/></g><g fill="#888a85" transform="translate(1 -2)"><rect width="6" height="1" x="-38" y="-8" color="#000" display="inline" transform="matrix(0,-1,-1,0,0,0)"/><rect width="5" height="1" x="-37" y="-12" color="#000" display="inline" transform="matrix(0,-1,-1,0,0,0)"/><rect width="4" height="1" x="-36" y="-16" color="#000" display="inline" transform="matrix(0,-1,-1,0,0,0)"/><rect width="3" height="1" x="-35" y="-20" color="#000" display="inline" transform="matrix(0,-1,-1,0,0,0)"/><rect width="6" height="1" x="-38" y="-24" color="#000" display="inline" transform="matrix(0,-1,-1,0,0,0)"/><rect width="3" height="1" x="-35" y="-28" color="#000" display="inline" transform="matrix(0,-1,-1,0,0,0)"/><rect width="4" height="1" x="-36" y="-32" color="#000" display="inline" transform="matrix(0,-1,-1,0,0,0)"/><rect width="5" height="1" x="-37" y="-35" color="#000" display="inline" transform="matrix(0,-1,-1,0,0,0)"/><rect width="6" height="1" x="-38" y="-39" color="#000" display="inline" transform="matrix(0,-1,-1,0,0,0)"/></g><g stroke-linecap="round"><rect width="4" height="35" x="16.5" y="-41.5" fill="url(#q)" stroke="#676a65" color="#000" display="inline" rx="1.875" ry="1.875" transform="rotate(90)"/><rect width="2" height="33" x="17.5" y="-40.5" fill="none" stroke="#fff" color="#000" display="inline" opacity=".511" rx=".813" ry=".813" transform="rotate(90)"/><rect width="19" height="17" x="8.5" y="15.5" fill="url(#p)" stroke="#2e3436" color="#000" display="inline" rx="1.875" ry="1.875" transform="matrix(0,1,1,0,0,0)"/><rect width="17" height="15" x="9.5" y="-31.5" fill="none" stroke="url(#o)" color="#000" display="inline" opacity=".664" rx=".903" ry=".903" transform="rotate(90)"/><rect width="12" height="11" x="9.5" y="18.5" fill="url(#n)" stroke="url(#m)" color="#000" display="inline" rx="1.875" ry="1.875" transform="matrix(0,1,1,0,0,0)"/></g><rect width="9" height="2" x="11" y="-25" fill="#c00" color="#000" display="inline" rx=".679" ry=".679" transform="rotate(90)"/><rect width="10" height="9" x="10.5" y="-28.5" fill="none" stroke="#fff" stroke-linecap="round" color="#000" display="inline" opacity=".31" rx=".92" ry=".92" transform="rotate(90)"/><g fill="#fff" fill-opacity=".824" transform="translate(2 -1)"><rect width="6" height="1" x="-38" y="-8" color="#000" display="inline" transform="matrix(0,-1,-1,0,0,0)"/><rect width="5" height="1" x="-37" y="-12" color="#000" display="inline" transform="matrix(0,-1,-1,0,0,0)"/><rect width="4" height="1" x="-36" y="-16" color="#000" display="inline" transform="matrix(0,-1,-1,0,0,0)"/><rect width="3" height="1" x="-35" y="-20" color="#000" display="inline" transform="matrix(0,-1,-1,0,0,0)"/><rect width="6" height="1" x="-38" y="-24" color="#000" display="inline" transform="matrix(0,-1,-1,0,0,0)"/><rect width="3" height="1" x="-35" y="-28" color="#000" display="inline" transform="matrix(0,-1,-1,0,0,0)"/><rect width="4" height="1" x="-36" y="-32" color="#000" display="inline" transform="matrix(0,-1,-1,0,0,0)"/><rect width="5" height="1" x="-37" y="-35" color="#000" display="inline" transform="matrix(0,-1,-1,0,0,0)"/><rect width="6" height="1" x="-38" y="-39" color="#000" display="inline" transform="matrix(0,-1,-1,0,0,0)"/></g><g display="inline" transform="matrix(.66667 0 0 .66667 0 16)"><g stroke-linecap="round"><rect width="42.88" height="36" x="2.5" y="9.5" fill="#b8b8b8" stroke="#666" color="#000" display="inline" rx="2.071" ry="2.071"/><rect width="42.973" height="37.973" x="2.513" y="4.513" fill="url(#x)" stroke="#666" stroke-width="1.027" color="#000" display="inline" rx="2.07" ry="2.185"/><rect width="39.038" height="33.038" x="4.481" y="6.481" fill="none" stroke="#fff" stroke-width=".962" color="#000" display="inline" opacity=".825" rx=".962" ry=".982"/></g><rect width="42" height="36" x="3.007" y="6" fill="url(#w)" color="#000" display="inline" rx="1.011" ry="1.04"/><g display="inline" opacity=".354" transform="matrix(-.012353 0 0 .01231 18.09 25.9)"><rect width="1295.2" height="478.36" x="-1126" y="-150.7" fill="url(#r)" color="#000" display="inline" opacity=".402"/><path fill="url(#f)" d="m169.2-154.33v481.98c133.94 0.90732 323.8-107.99 323.8-241.02 0-133.03-149.46-240.96-323.8-240.96z" color="#000" display="inline" opacity=".402"/><path fill="url(#d)" d="m-1126-154.33v478.33c-133.94 0.90045-323.8-107.17-323.8-239.2 0-132.03 149.46-239.13 323.8-239.13z" color="#000" display="inline" opacity=".402"/></g><g stroke-linecap="round"><rect width="4" height="35" x="17" y="-41.5" fill="#999" stroke="#4d4d4d" color="#000" display="inline" rx="1.875" ry="1.875" transform="rotate(90)"/><rect width="19" height="17" x="9.5" y="15.5" fill="url(#k)" stroke="#1a1a1a" color="#000" display="inline" rx="1.875" ry="1.875" transform="matrix(0,1,1,0,0,0)"/><rect width="17" height="15" x="10.5" y="-31.5" fill="none" stroke="url(#l)" color="#000" display="inline" opacity=".75" rx=".903" ry=".903" transform="rotate(90)"/><rect width="12.962" height="10.962" x="10.519" y="18.519" fill="url(#j)" stroke="#666" stroke-width="1.038" color="#000" display="inline" rx="2.025" ry="1.869" transform="matrix(0,1,1,0,0,0)"/></g><rect width="9" height="2" x="12.5" y="-25" fill="red" stroke="red" color="#000" display="inline" rx=".679" ry=".679" transform="rotate(90)"/><rect width="10.802" height="8.969" x="11.599" y="-28.485" fill="none" stroke="#ececec" stroke-linecap="round" stroke-width="1.037" color="#000" display="inline" opacity=".75" rx=".993" ry=".916" transform="rotate(90)"/><g display="inline" transform="translate(1.53e-5,1.3e-6)"><g id="b" fill="#666"><g fill="#666" transform="matrix(.75 0 0 1 14.239 3)"><rect width="6" height="2" x="-36" y="-9" fill="#666" color="#000" display="inline" transform="matrix(0,-1,-1,0,0,0)"/></g></g><g fill="#666"><use width="48" height="48" display="inline" transform="translate(7.8971)" xlink:href="#b"/><use width="48" height="48" stroke="#ccc" display="inline" transform="matrix(1 0 0 .66667 14.598 11)" xlink:href="#b"/><use width="48" height="48" display="inline" transform="translate(19.73)" xlink:href="#b"/></g><g fill="#666" display="inline"><g fill="#666" transform="matrix(.75 0 0 1 2.126 3)"><rect width="6" height="2" x="-36" y="-9" fill="#666" color="#000" display="inline" transform="matrix(0,-1,-1,0,0,0)"/></g></g><use width="48" height="48" fill="#666" stroke="#ccc" display="inline" transform="matrix(1 0 0 .66667 -7.4021 11)" xlink:href="#b"/></g></g></g></svg>