<svg xmlns="http://www.w3.org/2000/svg" xmlns:svg="http://www.w3.org/2000/svg" id="svg2" width="32" height="32" version="1.1" viewBox="0 0 32 32" xml:space="preserve"><defs id="defs2"><rect id="rect3" width="24.135" height="14.15" x="3.448" y="8.907"/><rect id="rect1" width="26.218" height="24.566" x="3.52" y="7.47"/></defs><path style="font-size:12px;font-family:Arial;-inkscape-font-specification:'Arial, Normal';stroke:#000;stroke-width:1.01149" id="text4" d="M 0.69952849,19.881348 V 11.291504 H 3.9221847 q 0.984375,0 1.5761719,0.263672 0.5976563,0.257812 0.9316406,0.802734 0.3398438,0.539063 0.3398438,1.13086 0,0.550781 -0.2988281,1.037109 -0.2988282,0.486328 -0.9023438,0.785156 0.7792969,0.228516 1.1953125,0.779297 0.421875,0.550781 0.421875,1.300781 0,0.603516 -0.2578125,1.125 -0.2519531,0.515625 -0.6269531,0.796875 -0.375,0.28125 -0.9433594,0.427735 -0.5625,0.140625 -1.3828125,0.140625 z M 1.8362472,14.900879 h 1.8574219 q 0.7558594,0 1.0839844,-0.09961 0.4335937,-0.128907 0.6503906,-0.427735 0.2226563,-0.298828 0.2226563,-0.75 0,-0.427734 -0.2050782,-0.75 Q 5.2405441,12.54541 4.8596847,12.428223 4.4788254,12.305176 3.5530441,12.305176 H 1.8362472 Z m 0,3.966797 h 2.1386719 q 0.5507813,0 0.7734375,-0.04102 0.3925781,-0.07031 0.65625,-0.234375 0.2636719,-0.164062 0.4335938,-0.474609 0.1699218,-0.316406 0.1699218,-0.726563 0,-0.480468 -0.2460937,-0.832031 Q 5.5159347,16.20166 5.0764816,16.061035 4.6428879,15.914551 3.8225754,15.914551 H 1.8362472 Z M 14.387028,11.291504 h 1.136719 v 4.962891 q 0,1.294921 -0.292969,2.05664 -0.292968,0.761719 -1.060546,1.242188 -0.761719,0.474609 -2.003907,0.474609 -1.207031,0 -1.974609,-0.416016 -0.7675781,-0.416015 -1.0957031,-1.201171 -0.328125,-0.791016 -0.328125,-2.15625 v -4.962891 h 1.1367187 v 4.957031 q 0,1.119141 0.2050784,1.652344 0.210937,0.527344 0.714843,0.814453 0.509766,0.287109 1.242188,0.287109 1.253906,0 1.787109,-0.568359 0.533203,-0.568359 0.533203,-2.185547 z m 2.982422,8.589844 v -8.589844 h 1.136719 v 7.576172 h 4.230469 v 1.013672 z m 6.673828,0 v -8.589844 h 1.136719 v 4.259766 l 4.265625,-4.259766 h 1.541016 l -3.603516,3.480469 3.761719,5.109375 h -1.5 l -3.058594,-4.347657 -1.40625,1.371094 v 2.976563 z" aria-label="BULK" transform="scale(0.99426982,1.0057632)"/></svg>