<svg xmlns="http://www.w3.org/2000/svg" width="160" height="40" version="1.1"><defs><linearGradient id="e" x1="74.993" x2="13.486" y1="-.146" y2="88.767" gradientTransform="matrix(.4467 0 0 .4487 123.41 .013019)" gradientUnits="userSpaceOnUse"><stop offset=".478" stop-color="#39b549"/><stop offset="1" stop-color="#1a76bc"/></linearGradient><linearGradient id="d" x1="74.998" x2="13.488" y1="-.15" y2="88.767" gradientTransform="matrix(.4467 0 0 .4487 68.726 .013019)" gradientUnits="userSpaceOnUse"><stop offset="0" stop-color="#381f1f"/><stop offset=".002" stop-color="#3a1f20"/><stop offset=".038" stop-color="#5b2825"/><stop offset=".076" stop-color="#7c2f28"/><stop offset=".117" stop-color="#9b2e28"/><stop offset=".163" stop-color="#b62c28"/><stop offset=".213" stop-color="#cc2626"/><stop offset=".271" stop-color="#dc2225"/><stop offset=".344" stop-color="#e81f25"/><stop offset=".478" stop-color="#ed1b26"/><stop offset="1" stop-color="#f7921e"/></linearGradient><linearGradient id="c" x1="74.992" x2="13.485" y1="-.147" y2="88.766" gradientTransform="matrix(.4467 0 0 .4487 96.071 .013019)" gradientUnits="userSpaceOnUse"><stop offset="0" stop-color="#120e1e"/><stop offset=".023" stop-color="#1b1426"/><stop offset=".145" stop-color="#442349"/><stop offset=".255" stop-color="#652866"/><stop offset=".351" stop-color="#7c287b"/><stop offset=".429" stop-color="#8b2589"/><stop offset=".478" stop-color="#91268f"/><stop offset="1" stop-color="#ed1b26"/></linearGradient></defs><rect width="3489.21" height="2031.73" x="-1575.61" y="-1055.69" fill="#0f0f0f" stroke-linecap="round" stroke-linejoin="round" stroke-width="1.6" style="paint-order:markers fill stroke"/><path fill="url(#e)" d="m120.63 40 27.298-39.987h12.066l-27.293 39.987h-12.071z"/><path fill="url(#d)" d="m65.946 40 27.296-39.987h12.073l-27.293 39.987h-12.076z"/><path fill="url(#c)" d="m93.291 40 27.298-39.987h12.067l-27.294 39.987h-12.071z"/><g fill="none" stroke="#000" stroke-width="1.6"><path d="m105.315 40.0001-27.2934-39.9872h-12.0712l27.2916 39.9872z"/><path d="m132.658 40.0001-27.2983-39.9872h-12.0707l27.2978 39.9872z"/><path d="m160.001 40.0001-27.2983-39.9872h-12.0712l27.2983 39.9872z"/><path fill-rule="evenodd" d="m51.509 0.0128862h10.3255v39.9872h-10.3255z"/><path d="m10.1245 40.0001v-23.4168l13.0776 19.9393h0.26668l13.2134-20.1421v23.6196h10.2603v-39.9872h-11.13l-12.3437 19.9389-12.3374-19.9389h-11.1313v39.9872z"/></g><g fill="#91786e" stroke-width=".448"><path d="m105.315 40.0001-27.2934-39.9872h-12.0712l27.2916 39.9872z"/><path d="m132.658 40.0001-27.2983-39.9872h-12.0707l27.2978 39.9872z"/><path d="m160.001 40.0001-27.2983-39.9872h-12.0712l27.2983 39.9872z"/><path fill-rule="evenodd" d="m51.509 0.0128862h10.3255v39.9872h-10.3255z"/><path d="m10.1245 40.0001v-23.4168l13.0776 19.9393h0.26668l13.2134-20.1421v23.6196h10.2603v-39.9872h-11.13l-12.3437 19.9389-12.3374-19.9389h-11.1313v39.9872z"/></g></svg>