<svg xmlns="http://www.w3.org/2000/svg" width="164" height="5" version="1.1"><g fill="#14abb8"><g fill="#14abb8"><rect width="1" height="5" x="1" color="#000"/><rect width="1" height="5" x="3" color="#000"/><rect width="1" height="5" x="5" color="#000"/><rect width="1" height="5" x="7" color="#000"/><rect width="1" height="5" x="9" color="#000"/><rect width="1" height="5" x="11" color="#000"/><rect width="1" height="5" x="13" color="#000"/><rect width="1" height="5" x="15" color="#000"/><rect width="1" height="5" x="17" color="#000"/><rect width="1" height="5" x="19" color="#000"/><rect width="1" height="5" x="21" color="#000"/><rect width="1" height="5" x="23" color="#000"/><rect width="1" height="5" x="25" color="#000"/><rect width="1" height="5" x="27" color="#000"/><rect width="1" height="5" x="29" color="#000"/><rect width="1" height="5" x="31" color="#000"/><rect width="1" height="5" x="33" color="#000"/><rect width="1" height="5" x="35" color="#000"/><rect width="1" height="5" x="37" color="#000"/><rect width="1" height="5" x="39" color="#000"/><rect width="1" height="5" x="41" color="#000"/><rect width="1" height="5" x="43" color="#000"/><rect width="1" height="5" x="45" color="#000"/><rect width="1" height="5" x="47" color="#000"/><rect width="1" height="5" x="49" color="#000"/><rect width="1" height="5" x="51" color="#000"/><rect width="1" height="5" x="53" color="#000"/><rect width="1" height="5" x="55" color="#000"/><rect width="1" height="5" x="57" color="#000"/><rect width="1" height="5" x="59" color="#000"/><rect width="1" height="5" x="61" color="#000"/><rect width="1" height="5" x="63" color="#000"/><rect width="1" height="5" x="65" color="#000"/><rect width="1" height="5" x="67" color="#000"/><rect width="1" height="5" x="69" color="#000"/><rect width="1" height="5" x="71" color="#000"/><rect width="1" height="5" x="73" color="#000"/><rect width="1" height="5" x="75" color="#000"/><rect width="1" height="5" x="77" color="#000"/><rect width="1" height="5" x="79" color="#000"/><rect width="1" height="5" x="81" color="#000"/><rect width="1" height="5" x="83" color="#000"/><rect width="1" height="5" x="85" color="#000"/><rect width="1" height="5" x="87" color="#000"/><rect width="1" height="5" x="89" color="#000"/><rect width="1" height="5" x="91" color="#000"/><rect width="1" height="5" x="93" color="#000"/><rect width="1" height="5" x="95" color="#000"/><rect width="1" height="5" x="97" color="#000"/><rect width="1" height="5" x="99" color="#000"/><rect width="1" height="5" x="101" color="#000"/><rect width="1" height="5" x="103" color="#000"/><rect width="1" height="5" x="105" color="#000"/><rect width="1" height="5" x="107" color="#000"/><rect width="1" height="5" x="109" color="#000"/><rect width="1" height="5" x="111" color="#000"/><rect width="1" height="5" x="113" color="#000"/><rect width="1" height="5" x="115" color="#000"/><rect width="1" height="5" x="117" color="#000"/><rect width="1" height="5" x="119" color="#000"/><rect width="1" height="5" x="121" color="#000"/><rect width="1" height="5" x="123" color="#000"/><rect width="1" height="5" x="125" color="#000"/><rect width="1" height="5" x="127" color="#000"/><rect width="1" height="5" x="129" color="#000"/><rect width="1" height="5" x="131" color="#000"/><rect width="1" height="5" x="133" color="#000"/><rect width="1" height="5" x="135" color="#000"/><rect width="1" height="5" x="137" color="#000"/><rect width="1" height="5" x="139" color="#000"/><rect width="1" height="5" x="141" color="#000"/><rect width="1" height="5" x="143" color="#000"/><rect width="1" height="5" x="145" color="#000"/><rect width="1" height="5" x="147" color="#000"/><rect width="1" height="5" x="149" color="#000"/><rect width="1" height="5" x="151" color="#000"/><rect width="1" height="5" x="153" color="#000"/><rect width="1" height="5" x="155" color="#000"/><rect width="1" height="5" x="157" color="#000"/><rect width="1" height="5" x="159" color="#000"/><rect width="1" height="5" x="161" color="#000"/><rect width="1" height="5" x="163" color="#000"/></g></g></svg>