<svg xmlns="http://www.w3.org/2000/svg" width="32" height="32" version="1.1" viewBox="0 0 16 16"><path fill="none" stroke="#000" stroke-linecap="round" stroke-linejoin="round" stroke-width="3.25" d="M 9.8367342,1.8716446 A 8,8 0 0 1 12.694433,8 8,8 0 0 1 9.8367341,14.128356" style="paint-order:fill markers stroke"/><path fill="none" stroke="#666668" stroke-linecap="round" stroke-linejoin="round" stroke-width="2" d="M 9.8367342,1.8716446 A 8,8 0 0 1 12.694433,8 8,8 0 0 1 9.8367341,14.128356" style="paint-order:fill markers stroke"/><path fill="none" stroke="#000" stroke-linecap="round" stroke-linejoin="round" stroke-width="3.25" d="M 6.4258543,4.1697778 A 5,5 0 0 1 8.2119162,8 5,5 0 0 1 6.4258542,11.830222" style="paint-order:fill markers stroke"/><path fill="none" stroke="#666668" stroke-linecap="round" stroke-linejoin="round" stroke-width="2" d="M 6.4258543,4.1697778 A 5,5 0 0 1 8.2119162,8 5,5 0 0 1 6.4258542,11.830222" style="paint-order:fill markers stroke"/><path fill="none" stroke="#000" stroke-linecap="round" stroke-linejoin="round" stroke-width="3.25" d="M 2.622796,5.7018667 A 3,3 0 0 1 3.6944332,8 3,3 0 0 1 2.622796,10.298133" style="paint-order:fill markers stroke"/><path fill="none" stroke="#666668" stroke-linecap="round" stroke-linejoin="round" stroke-width="2" d="M 2.622796,5.7018667 A 3,3 0 0 1 3.6944332,8 3,3 0 0 1 2.622796,10.298133" style="paint-order:fill markers stroke"/></svg>