<svg xmlns="http://www.w3.org/2000/svg" xmlns:svg="http://www.w3.org/2000/svg" id="svg1" width="48" height="48" version="1.1" viewBox="0 0 24 24"><g id="g2" transform="matrix(1.499956,0,0,1.499956,4.500265,-26.998837)" style="fill:none;fill-opacity:1;stroke-width:1.06669796;stroke:#000;stroke-opacity:1;stroke-dasharray:none"><path id="path1-2" fill="#979797" fill-opacity=".502" d="M 4.9766,0 C 3.5277,0.01 2.5348,0.65947 2.043,1.4238 l 1.26172,0.81059 c 0.2485,-0.38625 0.62385,-0.7271 1.6816,-0.73438 1.0447,-0.00718 1.407,0.31941 1.6699,0.75781 0.26297,0.4384 0.34296,1.0862 0.34375,1.5742 9.639e-4,0.58906 1.684e-4,1.8689 0,2.168 h -6.166 C 0.4173,6.00002 -1e-5,6.415 -1e-5,6.8301 v 4.3398 c 0,0.4151 0.41732,0.83008 0.83398,0.83008 h 8.332 c 0.41667,0 0.83398,-0.41498 0.83398,-0.83008 V 6.8301 C 9.99995,6.415 9.58263,6.00002 9.16597,6.00002 H 8.49995 c 1.69e-4,-0.29836 9.685e-4,-1.5773 0,-2.1719 C 8.4989534,3.21598 8.439704,2.31522 7.94136,1.48432 7.44301,0.65351 6.42246,-0.00998 4.97656,-8e-5 Z M 2,8 H 8 C 8.277,8 8.5,8.223 8.5,8.5 8.5,8.777 8.277,9 8,9 H 2 C 1.723,9 1.5,8.777 1.5,8.5 1.5,8.223 1.723,8 2,8 Z m 0,2 h 6 c 0.277,0 0.5,0.223 0.5,0.5 C 8.5,10.777 8.277,11 8,11 H 2 C 1.723,11 1.5,10.777 1.5,10.5 1.5,10.223 1.723,10 2,10 Z" color="#000001" color-rendering="auto" dominant-baseline="auto" image-rendering="auto" shape-rendering="auto" solid-color="#000001" transform="translate(0,20)" style="font-variant-ligatures:normal;font-variant-position:normal;font-variant-caps:normal;font-variant-numeric:normal;font-variant-alternates:normal;font-feature-settings:normal;text-indent:0;text-decoration-line:none;text-decoration-style:solid;text-decoration-color:#000001;text-transform:none;text-orientation:mixed;white-space:normal;shape-padding:0;isolation:auto;mix-blend-mode:normal;fill:none;fill-opacity:1;stroke-width:1.06669796;stroke:#000;stroke-opacity:1;stroke-dasharray:none"/></g><g id="g1" transform="matrix(1.499956,0,0,1.499956,4.500265,-26.998837)" style="stroke-width:.666686;fill:#928476;fill-opacity:1"><path id="path1" fill="#979797" fill-opacity=".502" d="M 4.9766,0 C 3.5277,0.01 2.5348,0.65947 2.043,1.4238 l 1.26172,0.81059 c 0.2485,-0.38625 0.62385,-0.7271 1.6816,-0.73438 1.0447,-0.00718 1.407,0.31941 1.6699,0.75781 0.26297,0.4384 0.34296,1.0862 0.34375,1.5742 9.639e-4,0.58906 1.684e-4,1.8689 0,2.168 h -6.166 C 0.4173,6.00002 -1e-5,6.415 -1e-5,6.8301 v 4.3398 c 0,0.4151 0.41732,0.83008 0.83398,0.83008 h 8.332 c 0.41667,0 0.83398,-0.41498 0.83398,-0.83008 V 6.8301 C 9.99995,6.415 9.58263,6.00002 9.16597,6.00002 H 8.49995 c 1.69e-4,-0.29836 9.685e-4,-1.5773 0,-2.1719 C 8.4989534,3.21598 8.439704,2.31522 7.94136,1.48432 7.44301,0.65351 6.42246,-0.00998 4.97656,-8e-5 Z M 2,8 H 8 C 8.277,8 8.5,8.223 8.5,8.5 8.5,8.777 8.277,9 8,9 H 2 C 1.723,9 1.5,8.777 1.5,8.5 1.5,8.223 1.723,8 2,8 Z m 0,2 h 6 c 0.277,0 0.5,0.223 0.5,0.5 C 8.5,10.777 8.277,11 8,11 H 2 C 1.723,11 1.5,10.777 1.5,10.5 1.5,10.223 1.723,10 2,10 Z" color="#000001" color-rendering="auto" dominant-baseline="auto" image-rendering="auto" shape-rendering="auto" solid-color="#000001" transform="translate(0,20)" style="font-variant-ligatures:normal;font-variant-position:normal;font-variant-caps:normal;font-variant-numeric:normal;font-variant-alternates:normal;font-feature-settings:normal;text-indent:0;text-decoration-line:none;text-decoration-style:solid;text-decoration-color:#000001;text-transform:none;text-orientation:mixed;white-space:normal;shape-padding:0;isolation:auto;mix-blend-mode:normal;stroke-width:.666686;fill:#928476;fill-opacity:1"/></g></svg>